%TF.GenerationSoftware,KiCad,Pcbnew,9.0.0*%
%TF.CreationDate,2025-04-23T17:39:51-07:00*%
%TF.ProjectId,ntscv2,6e747363-7632-42e6-9b69-6361645f7063,rev?*%
%TF.SameCoordinates,Original*%
%TF.FileFunction,Legend,Bot*%
%TF.FilePolarity,Positive*%
%FSLAX46Y46*%
G04 Gerber Fmt 4.6, Leading zero omitted, Abs format (unit mm)*
G04 Created by KiCad (PCBNEW 9.0.0) date 2025-04-23 17:39:51*
%MOMM*%
%LPD*%
G01*
G04 APERTURE LIST*
%ADD10C,0.150000*%
%ADD11C,0.120000*%
G04 APERTURE END LIST*
D10*
X179790475Y-55064819D02*
X179457142Y-56064819D01*
X179457142Y-56064819D02*
X179123809Y-55064819D01*
X178457142Y-55541009D02*
X178314285Y-55588628D01*
X178314285Y-55588628D02*
X178266666Y-55636247D01*
X178266666Y-55636247D02*
X178219047Y-55731485D01*
X178219047Y-55731485D02*
X178219047Y-55874342D01*
X178219047Y-55874342D02*
X178266666Y-55969580D01*
X178266666Y-55969580D02*
X178314285Y-56017200D01*
X178314285Y-56017200D02*
X178409523Y-56064819D01*
X178409523Y-56064819D02*
X178790475Y-56064819D01*
X178790475Y-56064819D02*
X178790475Y-55064819D01*
X178790475Y-55064819D02*
X178457142Y-55064819D01*
X178457142Y-55064819D02*
X178361904Y-55112438D01*
X178361904Y-55112438D02*
X178314285Y-55160057D01*
X178314285Y-55160057D02*
X178266666Y-55255295D01*
X178266666Y-55255295D02*
X178266666Y-55350533D01*
X178266666Y-55350533D02*
X178314285Y-55445771D01*
X178314285Y-55445771D02*
X178361904Y-55493390D01*
X178361904Y-55493390D02*
X178457142Y-55541009D01*
X178457142Y-55541009D02*
X178790475Y-55541009D01*
X177314285Y-56064819D02*
X177790475Y-56064819D01*
X177790475Y-56064819D02*
X177790475Y-55064819D01*
X177028570Y-55779104D02*
X176552380Y-55779104D01*
X177123808Y-56064819D02*
X176790475Y-55064819D01*
X176790475Y-55064819D02*
X176457142Y-56064819D01*
X176123808Y-56064819D02*
X176123808Y-55064819D01*
X176123808Y-55064819D02*
X175552380Y-56064819D01*
X175552380Y-56064819D02*
X175552380Y-55064819D01*
X175076189Y-56064819D02*
X175076189Y-55064819D01*
X174504761Y-56064819D02*
X174933332Y-55493390D01*
X174504761Y-55064819D02*
X175076189Y-55636247D01*
X188344285Y-63864819D02*
X188344285Y-62864819D01*
X188344285Y-63341009D02*
X187772857Y-63341009D01*
X187772857Y-63864819D02*
X187772857Y-62864819D01*
X187344285Y-63817200D02*
X187201428Y-63864819D01*
X187201428Y-63864819D02*
X186963333Y-63864819D01*
X186963333Y-63864819D02*
X186868095Y-63817200D01*
X186868095Y-63817200D02*
X186820476Y-63769580D01*
X186820476Y-63769580D02*
X186772857Y-63674342D01*
X186772857Y-63674342D02*
X186772857Y-63579104D01*
X186772857Y-63579104D02*
X186820476Y-63483866D01*
X186820476Y-63483866D02*
X186868095Y-63436247D01*
X186868095Y-63436247D02*
X186963333Y-63388628D01*
X186963333Y-63388628D02*
X187153809Y-63341009D01*
X187153809Y-63341009D02*
X187249047Y-63293390D01*
X187249047Y-63293390D02*
X187296666Y-63245771D01*
X187296666Y-63245771D02*
X187344285Y-63150533D01*
X187344285Y-63150533D02*
X187344285Y-63055295D01*
X187344285Y-63055295D02*
X187296666Y-62960057D01*
X187296666Y-62960057D02*
X187249047Y-62912438D01*
X187249047Y-62912438D02*
X187153809Y-62864819D01*
X187153809Y-62864819D02*
X186915714Y-62864819D01*
X186915714Y-62864819D02*
X186772857Y-62912438D01*
X186153809Y-63388628D02*
X186153809Y-63864819D01*
X186487142Y-62864819D02*
X186153809Y-63388628D01*
X186153809Y-63388628D02*
X185820476Y-62864819D01*
X185487142Y-63864819D02*
X185487142Y-62864819D01*
X185487142Y-62864819D02*
X184915714Y-63864819D01*
X184915714Y-63864819D02*
X184915714Y-62864819D01*
X183868095Y-63769580D02*
X183915714Y-63817200D01*
X183915714Y-63817200D02*
X184058571Y-63864819D01*
X184058571Y-63864819D02*
X184153809Y-63864819D01*
X184153809Y-63864819D02*
X184296666Y-63817200D01*
X184296666Y-63817200D02*
X184391904Y-63721961D01*
X184391904Y-63721961D02*
X184439523Y-63626723D01*
X184439523Y-63626723D02*
X184487142Y-63436247D01*
X184487142Y-63436247D02*
X184487142Y-63293390D01*
X184487142Y-63293390D02*
X184439523Y-63102914D01*
X184439523Y-63102914D02*
X184391904Y-63007676D01*
X184391904Y-63007676D02*
X184296666Y-62912438D01*
X184296666Y-62912438D02*
X184153809Y-62864819D01*
X184153809Y-62864819D02*
X184058571Y-62864819D01*
X184058571Y-62864819D02*
X183915714Y-62912438D01*
X183915714Y-62912438D02*
X183868095Y-62960057D01*
X183106190Y-63341009D02*
X182963333Y-63388628D01*
X182963333Y-63388628D02*
X182915714Y-63436247D01*
X182915714Y-63436247D02*
X182868095Y-63531485D01*
X182868095Y-63531485D02*
X182868095Y-63674342D01*
X182868095Y-63674342D02*
X182915714Y-63769580D01*
X182915714Y-63769580D02*
X182963333Y-63817200D01*
X182963333Y-63817200D02*
X183058571Y-63864819D01*
X183058571Y-63864819D02*
X183439523Y-63864819D01*
X183439523Y-63864819D02*
X183439523Y-62864819D01*
X183439523Y-62864819D02*
X183106190Y-62864819D01*
X183106190Y-62864819D02*
X183010952Y-62912438D01*
X183010952Y-62912438D02*
X182963333Y-62960057D01*
X182963333Y-62960057D02*
X182915714Y-63055295D01*
X182915714Y-63055295D02*
X182915714Y-63150533D01*
X182915714Y-63150533D02*
X182963333Y-63245771D01*
X182963333Y-63245771D02*
X183010952Y-63293390D01*
X183010952Y-63293390D02*
X183106190Y-63341009D01*
X183106190Y-63341009D02*
X183439523Y-63341009D01*
X200825714Y-50269580D02*
X200873333Y-50317200D01*
X200873333Y-50317200D02*
X201016190Y-50364819D01*
X201016190Y-50364819D02*
X201111428Y-50364819D01*
X201111428Y-50364819D02*
X201254285Y-50317200D01*
X201254285Y-50317200D02*
X201349523Y-50221961D01*
X201349523Y-50221961D02*
X201397142Y-50126723D01*
X201397142Y-50126723D02*
X201444761Y-49936247D01*
X201444761Y-49936247D02*
X201444761Y-49793390D01*
X201444761Y-49793390D02*
X201397142Y-49602914D01*
X201397142Y-49602914D02*
X201349523Y-49507676D01*
X201349523Y-49507676D02*
X201254285Y-49412438D01*
X201254285Y-49412438D02*
X201111428Y-49364819D01*
X201111428Y-49364819D02*
X201016190Y-49364819D01*
X201016190Y-49364819D02*
X200873333Y-49412438D01*
X200873333Y-49412438D02*
X200825714Y-49460057D01*
X200063809Y-49841009D02*
X199920952Y-49888628D01*
X199920952Y-49888628D02*
X199873333Y-49936247D01*
X199873333Y-49936247D02*
X199825714Y-50031485D01*
X199825714Y-50031485D02*
X199825714Y-50174342D01*
X199825714Y-50174342D02*
X199873333Y-50269580D01*
X199873333Y-50269580D02*
X199920952Y-50317200D01*
X199920952Y-50317200D02*
X200016190Y-50364819D01*
X200016190Y-50364819D02*
X200397142Y-50364819D01*
X200397142Y-50364819D02*
X200397142Y-49364819D01*
X200397142Y-49364819D02*
X200063809Y-49364819D01*
X200063809Y-49364819D02*
X199968571Y-49412438D01*
X199968571Y-49412438D02*
X199920952Y-49460057D01*
X199920952Y-49460057D02*
X199873333Y-49555295D01*
X199873333Y-49555295D02*
X199873333Y-49650533D01*
X199873333Y-49650533D02*
X199920952Y-49745771D01*
X199920952Y-49745771D02*
X199968571Y-49793390D01*
X199968571Y-49793390D02*
X200063809Y-49841009D01*
X200063809Y-49841009D02*
X200397142Y-49841009D01*
X199635238Y-50460057D02*
X198873333Y-50460057D01*
X198635237Y-50364819D02*
X198635237Y-49364819D01*
X198635237Y-49364819D02*
X198397142Y-49364819D01*
X198397142Y-49364819D02*
X198254285Y-49412438D01*
X198254285Y-49412438D02*
X198159047Y-49507676D01*
X198159047Y-49507676D02*
X198111428Y-49602914D01*
X198111428Y-49602914D02*
X198063809Y-49793390D01*
X198063809Y-49793390D02*
X198063809Y-49936247D01*
X198063809Y-49936247D02*
X198111428Y-50126723D01*
X198111428Y-50126723D02*
X198159047Y-50221961D01*
X198159047Y-50221961D02*
X198254285Y-50317200D01*
X198254285Y-50317200D02*
X198397142Y-50364819D01*
X198397142Y-50364819D02*
X198635237Y-50364819D01*
X197635237Y-50364819D02*
X197635237Y-49364819D01*
X197206666Y-50317200D02*
X197063809Y-50364819D01*
X197063809Y-50364819D02*
X196825714Y-50364819D01*
X196825714Y-50364819D02*
X196730476Y-50317200D01*
X196730476Y-50317200D02*
X196682857Y-50269580D01*
X196682857Y-50269580D02*
X196635238Y-50174342D01*
X196635238Y-50174342D02*
X196635238Y-50079104D01*
X196635238Y-50079104D02*
X196682857Y-49983866D01*
X196682857Y-49983866D02*
X196730476Y-49936247D01*
X196730476Y-49936247D02*
X196825714Y-49888628D01*
X196825714Y-49888628D02*
X197016190Y-49841009D01*
X197016190Y-49841009D02*
X197111428Y-49793390D01*
X197111428Y-49793390D02*
X197159047Y-49745771D01*
X197159047Y-49745771D02*
X197206666Y-49650533D01*
X197206666Y-49650533D02*
X197206666Y-49555295D01*
X197206666Y-49555295D02*
X197159047Y-49460057D01*
X197159047Y-49460057D02*
X197111428Y-49412438D01*
X197111428Y-49412438D02*
X197016190Y-49364819D01*
X197016190Y-49364819D02*
X196778095Y-49364819D01*
X196778095Y-49364819D02*
X196635238Y-49412438D01*
X191179048Y-66349580D02*
X191226667Y-66397200D01*
X191226667Y-66397200D02*
X191369524Y-66444819D01*
X191369524Y-66444819D02*
X191464762Y-66444819D01*
X191464762Y-66444819D02*
X191607619Y-66397200D01*
X191607619Y-66397200D02*
X191702857Y-66301961D01*
X191702857Y-66301961D02*
X191750476Y-66206723D01*
X191750476Y-66206723D02*
X191798095Y-66016247D01*
X191798095Y-66016247D02*
X191798095Y-65873390D01*
X191798095Y-65873390D02*
X191750476Y-65682914D01*
X191750476Y-65682914D02*
X191702857Y-65587676D01*
X191702857Y-65587676D02*
X191607619Y-65492438D01*
X191607619Y-65492438D02*
X191464762Y-65444819D01*
X191464762Y-65444819D02*
X191369524Y-65444819D01*
X191369524Y-65444819D02*
X191226667Y-65492438D01*
X191226667Y-65492438D02*
X191179048Y-65540057D01*
X190417143Y-65921009D02*
X190274286Y-65968628D01*
X190274286Y-65968628D02*
X190226667Y-66016247D01*
X190226667Y-66016247D02*
X190179048Y-66111485D01*
X190179048Y-66111485D02*
X190179048Y-66254342D01*
X190179048Y-66254342D02*
X190226667Y-66349580D01*
X190226667Y-66349580D02*
X190274286Y-66397200D01*
X190274286Y-66397200D02*
X190369524Y-66444819D01*
X190369524Y-66444819D02*
X190750476Y-66444819D01*
X190750476Y-66444819D02*
X190750476Y-65444819D01*
X190750476Y-65444819D02*
X190417143Y-65444819D01*
X190417143Y-65444819D02*
X190321905Y-65492438D01*
X190321905Y-65492438D02*
X190274286Y-65540057D01*
X190274286Y-65540057D02*
X190226667Y-65635295D01*
X190226667Y-65635295D02*
X190226667Y-65730533D01*
X190226667Y-65730533D02*
X190274286Y-65825771D01*
X190274286Y-65825771D02*
X190321905Y-65873390D01*
X190321905Y-65873390D02*
X190417143Y-65921009D01*
X190417143Y-65921009D02*
X190750476Y-65921009D01*
X189988572Y-66540057D02*
X189226667Y-66540057D01*
X189036190Y-66397200D02*
X188893333Y-66444819D01*
X188893333Y-66444819D02*
X188655238Y-66444819D01*
X188655238Y-66444819D02*
X188560000Y-66397200D01*
X188560000Y-66397200D02*
X188512381Y-66349580D01*
X188512381Y-66349580D02*
X188464762Y-66254342D01*
X188464762Y-66254342D02*
X188464762Y-66159104D01*
X188464762Y-66159104D02*
X188512381Y-66063866D01*
X188512381Y-66063866D02*
X188560000Y-66016247D01*
X188560000Y-66016247D02*
X188655238Y-65968628D01*
X188655238Y-65968628D02*
X188845714Y-65921009D01*
X188845714Y-65921009D02*
X188940952Y-65873390D01*
X188940952Y-65873390D02*
X188988571Y-65825771D01*
X188988571Y-65825771D02*
X189036190Y-65730533D01*
X189036190Y-65730533D02*
X189036190Y-65635295D01*
X189036190Y-65635295D02*
X188988571Y-65540057D01*
X188988571Y-65540057D02*
X188940952Y-65492438D01*
X188940952Y-65492438D02*
X188845714Y-65444819D01*
X188845714Y-65444819D02*
X188607619Y-65444819D01*
X188607619Y-65444819D02*
X188464762Y-65492438D01*
X187893333Y-66444819D02*
X187988571Y-66397200D01*
X187988571Y-66397200D02*
X188036190Y-66349580D01*
X188036190Y-66349580D02*
X188083809Y-66254342D01*
X188083809Y-66254342D02*
X188083809Y-65968628D01*
X188083809Y-65968628D02*
X188036190Y-65873390D01*
X188036190Y-65873390D02*
X187988571Y-65825771D01*
X187988571Y-65825771D02*
X187893333Y-65778152D01*
X187893333Y-65778152D02*
X187750476Y-65778152D01*
X187750476Y-65778152D02*
X187655238Y-65825771D01*
X187655238Y-65825771D02*
X187607619Y-65873390D01*
X187607619Y-65873390D02*
X187560000Y-65968628D01*
X187560000Y-65968628D02*
X187560000Y-66254342D01*
X187560000Y-66254342D02*
X187607619Y-66349580D01*
X187607619Y-66349580D02*
X187655238Y-66397200D01*
X187655238Y-66397200D02*
X187750476Y-66444819D01*
X187750476Y-66444819D02*
X187893333Y-66444819D01*
X186702857Y-65778152D02*
X186702857Y-66444819D01*
X187131428Y-65778152D02*
X187131428Y-66301961D01*
X187131428Y-66301961D02*
X187083809Y-66397200D01*
X187083809Y-66397200D02*
X186988571Y-66444819D01*
X186988571Y-66444819D02*
X186845714Y-66444819D01*
X186845714Y-66444819D02*
X186750476Y-66397200D01*
X186750476Y-66397200D02*
X186702857Y-66349580D01*
X186226666Y-66444819D02*
X186226666Y-65778152D01*
X186226666Y-65968628D02*
X186179047Y-65873390D01*
X186179047Y-65873390D02*
X186131428Y-65825771D01*
X186131428Y-65825771D02*
X186036190Y-65778152D01*
X186036190Y-65778152D02*
X185940952Y-65778152D01*
X185179047Y-66397200D02*
X185274285Y-66444819D01*
X185274285Y-66444819D02*
X185464761Y-66444819D01*
X185464761Y-66444819D02*
X185559999Y-66397200D01*
X185559999Y-66397200D02*
X185607618Y-66349580D01*
X185607618Y-66349580D02*
X185655237Y-66254342D01*
X185655237Y-66254342D02*
X185655237Y-65968628D01*
X185655237Y-65968628D02*
X185607618Y-65873390D01*
X185607618Y-65873390D02*
X185559999Y-65825771D01*
X185559999Y-65825771D02*
X185464761Y-65778152D01*
X185464761Y-65778152D02*
X185274285Y-65778152D01*
X185274285Y-65778152D02*
X185179047Y-65825771D01*
X184369523Y-66397200D02*
X184464761Y-66444819D01*
X184464761Y-66444819D02*
X184655237Y-66444819D01*
X184655237Y-66444819D02*
X184750475Y-66397200D01*
X184750475Y-66397200D02*
X184798094Y-66301961D01*
X184798094Y-66301961D02*
X184798094Y-65921009D01*
X184798094Y-65921009D02*
X184750475Y-65825771D01*
X184750475Y-65825771D02*
X184655237Y-65778152D01*
X184655237Y-65778152D02*
X184464761Y-65778152D01*
X184464761Y-65778152D02*
X184369523Y-65825771D01*
X184369523Y-65825771D02*
X184321904Y-65921009D01*
X184321904Y-65921009D02*
X184321904Y-66016247D01*
X184321904Y-66016247D02*
X184798094Y-66111485D01*
X183485237Y-49034819D02*
X183151904Y-50034819D01*
X183151904Y-50034819D02*
X182818571Y-49034819D01*
X181913809Y-50034819D02*
X182247142Y-49558628D01*
X182485237Y-50034819D02*
X182485237Y-49034819D01*
X182485237Y-49034819D02*
X182104285Y-49034819D01*
X182104285Y-49034819D02*
X182009047Y-49082438D01*
X182009047Y-49082438D02*
X181961428Y-49130057D01*
X181961428Y-49130057D02*
X181913809Y-49225295D01*
X181913809Y-49225295D02*
X181913809Y-49368152D01*
X181913809Y-49368152D02*
X181961428Y-49463390D01*
X181961428Y-49463390D02*
X182009047Y-49511009D01*
X182009047Y-49511009D02*
X182104285Y-49558628D01*
X182104285Y-49558628D02*
X182485237Y-49558628D01*
X181485237Y-49511009D02*
X181151904Y-49511009D01*
X181009047Y-50034819D02*
X181485237Y-50034819D01*
X181485237Y-50034819D02*
X181485237Y-49034819D01*
X181485237Y-49034819D02*
X181009047Y-49034819D01*
X180628094Y-49987200D02*
X180485237Y-50034819D01*
X180485237Y-50034819D02*
X180247142Y-50034819D01*
X180247142Y-50034819D02*
X180151904Y-49987200D01*
X180151904Y-49987200D02*
X180104285Y-49939580D01*
X180104285Y-49939580D02*
X180056666Y-49844342D01*
X180056666Y-49844342D02*
X180056666Y-49749104D01*
X180056666Y-49749104D02*
X180104285Y-49653866D01*
X180104285Y-49653866D02*
X180151904Y-49606247D01*
X180151904Y-49606247D02*
X180247142Y-49558628D01*
X180247142Y-49558628D02*
X180437618Y-49511009D01*
X180437618Y-49511009D02*
X180532856Y-49463390D01*
X180532856Y-49463390D02*
X180580475Y-49415771D01*
X180580475Y-49415771D02*
X180628094Y-49320533D01*
X180628094Y-49320533D02*
X180628094Y-49225295D01*
X180628094Y-49225295D02*
X180580475Y-49130057D01*
X180580475Y-49130057D02*
X180532856Y-49082438D01*
X180532856Y-49082438D02*
X180437618Y-49034819D01*
X180437618Y-49034819D02*
X180199523Y-49034819D01*
X180199523Y-49034819D02*
X180056666Y-49082438D01*
X179628094Y-49511009D02*
X179294761Y-49511009D01*
X179151904Y-50034819D02*
X179628094Y-50034819D01*
X179628094Y-50034819D02*
X179628094Y-49034819D01*
X179628094Y-49034819D02*
X179151904Y-49034819D01*
X178866189Y-49034819D02*
X178294761Y-49034819D01*
X178580475Y-50034819D02*
X178580475Y-49034819D01*
X200791189Y-56094818D02*
X200791189Y-55094818D01*
X200791189Y-55571008D02*
X200219761Y-55571008D01*
X200219761Y-56094818D02*
X200219761Y-55094818D01*
X199791189Y-56047199D02*
X199648332Y-56094818D01*
X199648332Y-56094818D02*
X199410237Y-56094818D01*
X199410237Y-56094818D02*
X199314999Y-56047199D01*
X199314999Y-56047199D02*
X199267380Y-55999579D01*
X199267380Y-55999579D02*
X199219761Y-55904341D01*
X199219761Y-55904341D02*
X199219761Y-55809103D01*
X199219761Y-55809103D02*
X199267380Y-55713865D01*
X199267380Y-55713865D02*
X199314999Y-55666246D01*
X199314999Y-55666246D02*
X199410237Y-55618627D01*
X199410237Y-55618627D02*
X199600713Y-55571008D01*
X199600713Y-55571008D02*
X199695951Y-55523389D01*
X199695951Y-55523389D02*
X199743570Y-55475770D01*
X199743570Y-55475770D02*
X199791189Y-55380532D01*
X199791189Y-55380532D02*
X199791189Y-55285294D01*
X199791189Y-55285294D02*
X199743570Y-55190056D01*
X199743570Y-55190056D02*
X199695951Y-55142437D01*
X199695951Y-55142437D02*
X199600713Y-55094818D01*
X199600713Y-55094818D02*
X199362618Y-55094818D01*
X199362618Y-55094818D02*
X199219761Y-55142437D01*
X198600713Y-55618627D02*
X198600713Y-56094818D01*
X198934046Y-55094818D02*
X198600713Y-55618627D01*
X198600713Y-55618627D02*
X198267380Y-55094818D01*
X197934046Y-56094818D02*
X197934046Y-55094818D01*
X197934046Y-55094818D02*
X197362618Y-56094818D01*
X197362618Y-56094818D02*
X197362618Y-55094818D01*
X196314999Y-55999579D02*
X196362618Y-56047199D01*
X196362618Y-56047199D02*
X196505475Y-56094818D01*
X196505475Y-56094818D02*
X196600713Y-56094818D01*
X196600713Y-56094818D02*
X196743570Y-56047199D01*
X196743570Y-56047199D02*
X196838808Y-55951960D01*
X196838808Y-55951960D02*
X196886427Y-55856722D01*
X196886427Y-55856722D02*
X196934046Y-55666246D01*
X196934046Y-55666246D02*
X196934046Y-55523389D01*
X196934046Y-55523389D02*
X196886427Y-55332913D01*
X196886427Y-55332913D02*
X196838808Y-55237675D01*
X196838808Y-55237675D02*
X196743570Y-55142437D01*
X196743570Y-55142437D02*
X196600713Y-55094818D01*
X196600713Y-55094818D02*
X196505475Y-55094818D01*
X196505475Y-55094818D02*
X196362618Y-55142437D01*
X196362618Y-55142437D02*
X196314999Y-55190056D01*
X196124523Y-56190056D02*
X195362618Y-56190056D01*
X195124522Y-56094818D02*
X195124522Y-55428151D01*
X195124522Y-55094818D02*
X195172141Y-55142437D01*
X195172141Y-55142437D02*
X195124522Y-55190056D01*
X195124522Y-55190056D02*
X195076903Y-55142437D01*
X195076903Y-55142437D02*
X195124522Y-55094818D01*
X195124522Y-55094818D02*
X195124522Y-55190056D01*
X194648332Y-55428151D02*
X194648332Y-56094818D01*
X194648332Y-55523389D02*
X194600713Y-55475770D01*
X194600713Y-55475770D02*
X194505475Y-55428151D01*
X194505475Y-55428151D02*
X194362618Y-55428151D01*
X194362618Y-55428151D02*
X194267380Y-55475770D01*
X194267380Y-55475770D02*
X194219761Y-55571008D01*
X194219761Y-55571008D02*
X194219761Y-56094818D01*
X193743570Y-55428151D02*
X193743570Y-56428151D01*
X193743570Y-55475770D02*
X193648332Y-55428151D01*
X193648332Y-55428151D02*
X193457856Y-55428151D01*
X193457856Y-55428151D02*
X193362618Y-55475770D01*
X193362618Y-55475770D02*
X193314999Y-55523389D01*
X193314999Y-55523389D02*
X193267380Y-55618627D01*
X193267380Y-55618627D02*
X193267380Y-55904341D01*
X193267380Y-55904341D02*
X193314999Y-55999579D01*
X193314999Y-55999579D02*
X193362618Y-56047199D01*
X193362618Y-56047199D02*
X193457856Y-56094818D01*
X193457856Y-56094818D02*
X193648332Y-56094818D01*
X193648332Y-56094818D02*
X193743570Y-56047199D01*
X192410237Y-55428151D02*
X192410237Y-56094818D01*
X192838808Y-55428151D02*
X192838808Y-55951960D01*
X192838808Y-55951960D02*
X192791189Y-56047199D01*
X192791189Y-56047199D02*
X192695951Y-56094818D01*
X192695951Y-56094818D02*
X192553094Y-56094818D01*
X192553094Y-56094818D02*
X192457856Y-56047199D01*
X192457856Y-56047199D02*
X192410237Y-55999579D01*
X192076903Y-55428151D02*
X191695951Y-55428151D01*
X191934046Y-55094818D02*
X191934046Y-55951960D01*
X191934046Y-55951960D02*
X191886427Y-56047199D01*
X191886427Y-56047199D02*
X191791189Y-56094818D01*
X191791189Y-56094818D02*
X191695951Y-56094818D01*
X187672856Y-61574819D02*
X187672856Y-60574819D01*
X187672856Y-61051009D02*
X187101428Y-61051009D01*
X187101428Y-61574819D02*
X187101428Y-60574819D01*
X186672856Y-61527200D02*
X186529999Y-61574819D01*
X186529999Y-61574819D02*
X186291904Y-61574819D01*
X186291904Y-61574819D02*
X186196666Y-61527200D01*
X186196666Y-61527200D02*
X186149047Y-61479580D01*
X186149047Y-61479580D02*
X186101428Y-61384342D01*
X186101428Y-61384342D02*
X186101428Y-61289104D01*
X186101428Y-61289104D02*
X186149047Y-61193866D01*
X186149047Y-61193866D02*
X186196666Y-61146247D01*
X186196666Y-61146247D02*
X186291904Y-61098628D01*
X186291904Y-61098628D02*
X186482380Y-61051009D01*
X186482380Y-61051009D02*
X186577618Y-61003390D01*
X186577618Y-61003390D02*
X186625237Y-60955771D01*
X186625237Y-60955771D02*
X186672856Y-60860533D01*
X186672856Y-60860533D02*
X186672856Y-60765295D01*
X186672856Y-60765295D02*
X186625237Y-60670057D01*
X186625237Y-60670057D02*
X186577618Y-60622438D01*
X186577618Y-60622438D02*
X186482380Y-60574819D01*
X186482380Y-60574819D02*
X186244285Y-60574819D01*
X186244285Y-60574819D02*
X186101428Y-60622438D01*
X185482380Y-61098628D02*
X185482380Y-61574819D01*
X185815713Y-60574819D02*
X185482380Y-61098628D01*
X185482380Y-61098628D02*
X185149047Y-60574819D01*
X184815713Y-61574819D02*
X184815713Y-60574819D01*
X184815713Y-60574819D02*
X184244285Y-61574819D01*
X184244285Y-61574819D02*
X184244285Y-60574819D01*
X183196666Y-61479580D02*
X183244285Y-61527200D01*
X183244285Y-61527200D02*
X183387142Y-61574819D01*
X183387142Y-61574819D02*
X183482380Y-61574819D01*
X183482380Y-61574819D02*
X183625237Y-61527200D01*
X183625237Y-61527200D02*
X183720475Y-61431961D01*
X183720475Y-61431961D02*
X183768094Y-61336723D01*
X183768094Y-61336723D02*
X183815713Y-61146247D01*
X183815713Y-61146247D02*
X183815713Y-61003390D01*
X183815713Y-61003390D02*
X183768094Y-60812914D01*
X183768094Y-60812914D02*
X183720475Y-60717676D01*
X183720475Y-60717676D02*
X183625237Y-60622438D01*
X183625237Y-60622438D02*
X183482380Y-60574819D01*
X183482380Y-60574819D02*
X183387142Y-60574819D01*
X183387142Y-60574819D02*
X183244285Y-60622438D01*
X183244285Y-60622438D02*
X183196666Y-60670057D01*
X182815713Y-61289104D02*
X182339523Y-61289104D01*
X182910951Y-61574819D02*
X182577618Y-60574819D01*
X182577618Y-60574819D02*
X182244285Y-61574819D01*
X191276666Y-50269580D02*
X191324285Y-50317200D01*
X191324285Y-50317200D02*
X191467142Y-50364819D01*
X191467142Y-50364819D02*
X191562380Y-50364819D01*
X191562380Y-50364819D02*
X191705237Y-50317200D01*
X191705237Y-50317200D02*
X191800475Y-50221961D01*
X191800475Y-50221961D02*
X191848094Y-50126723D01*
X191848094Y-50126723D02*
X191895713Y-49936247D01*
X191895713Y-49936247D02*
X191895713Y-49793390D01*
X191895713Y-49793390D02*
X191848094Y-49602914D01*
X191848094Y-49602914D02*
X191800475Y-49507676D01*
X191800475Y-49507676D02*
X191705237Y-49412438D01*
X191705237Y-49412438D02*
X191562380Y-49364819D01*
X191562380Y-49364819D02*
X191467142Y-49364819D01*
X191467142Y-49364819D02*
X191324285Y-49412438D01*
X191324285Y-49412438D02*
X191276666Y-49460057D01*
X190514761Y-49841009D02*
X190371904Y-49888628D01*
X190371904Y-49888628D02*
X190324285Y-49936247D01*
X190324285Y-49936247D02*
X190276666Y-50031485D01*
X190276666Y-50031485D02*
X190276666Y-50174342D01*
X190276666Y-50174342D02*
X190324285Y-50269580D01*
X190324285Y-50269580D02*
X190371904Y-50317200D01*
X190371904Y-50317200D02*
X190467142Y-50364819D01*
X190467142Y-50364819D02*
X190848094Y-50364819D01*
X190848094Y-50364819D02*
X190848094Y-49364819D01*
X190848094Y-49364819D02*
X190514761Y-49364819D01*
X190514761Y-49364819D02*
X190419523Y-49412438D01*
X190419523Y-49412438D02*
X190371904Y-49460057D01*
X190371904Y-49460057D02*
X190324285Y-49555295D01*
X190324285Y-49555295D02*
X190324285Y-49650533D01*
X190324285Y-49650533D02*
X190371904Y-49745771D01*
X190371904Y-49745771D02*
X190419523Y-49793390D01*
X190419523Y-49793390D02*
X190514761Y-49841009D01*
X190514761Y-49841009D02*
X190848094Y-49841009D01*
X189848094Y-49841009D02*
X189514761Y-49841009D01*
X189371904Y-50364819D02*
X189848094Y-50364819D01*
X189848094Y-50364819D02*
X189848094Y-49364819D01*
X189848094Y-49364819D02*
X189371904Y-49364819D01*
X188943332Y-50364819D02*
X188943332Y-49364819D01*
X188943332Y-49364819D02*
X188371904Y-50364819D01*
X188371904Y-50364819D02*
X188371904Y-49364819D01*
X170858571Y-47371009D02*
X171191904Y-47371009D01*
X171191904Y-47894819D02*
X171191904Y-46894819D01*
X171191904Y-46894819D02*
X170715714Y-46894819D01*
X170334761Y-47894819D02*
X170334761Y-46894819D01*
X169858571Y-47371009D02*
X169525238Y-47371009D01*
X169382381Y-47894819D02*
X169858571Y-47894819D01*
X169858571Y-47894819D02*
X169858571Y-46894819D01*
X169858571Y-46894819D02*
X169382381Y-46894819D01*
X168477619Y-47894819D02*
X168953809Y-47894819D01*
X168953809Y-47894819D02*
X168953809Y-46894819D01*
X168144285Y-47894819D02*
X168144285Y-46894819D01*
X168144285Y-46894819D02*
X167906190Y-46894819D01*
X167906190Y-46894819D02*
X167763333Y-46942438D01*
X167763333Y-46942438D02*
X167668095Y-47037676D01*
X167668095Y-47037676D02*
X167620476Y-47132914D01*
X167620476Y-47132914D02*
X167572857Y-47323390D01*
X167572857Y-47323390D02*
X167572857Y-47466247D01*
X167572857Y-47466247D02*
X167620476Y-47656723D01*
X167620476Y-47656723D02*
X167668095Y-47751961D01*
X167668095Y-47751961D02*
X167763333Y-47847200D01*
X167763333Y-47847200D02*
X167906190Y-47894819D01*
X167906190Y-47894819D02*
X168144285Y-47894819D01*
X166620476Y-47894819D02*
X167191904Y-47894819D01*
X166906190Y-47894819D02*
X166906190Y-46894819D01*
X166906190Y-46894819D02*
X167001428Y-47037676D01*
X167001428Y-47037676D02*
X167096666Y-47132914D01*
X167096666Y-47132914D02*
X167191904Y-47180533D01*
X202786666Y-68234819D02*
X202786666Y-67234819D01*
X202786666Y-67234819D02*
X202405714Y-67234819D01*
X202405714Y-67234819D02*
X202310476Y-67282438D01*
X202310476Y-67282438D02*
X202262857Y-67330057D01*
X202262857Y-67330057D02*
X202215238Y-67425295D01*
X202215238Y-67425295D02*
X202215238Y-67568152D01*
X202215238Y-67568152D02*
X202262857Y-67663390D01*
X202262857Y-67663390D02*
X202310476Y-67711009D01*
X202310476Y-67711009D02*
X202405714Y-67758628D01*
X202405714Y-67758628D02*
X202786666Y-67758628D01*
X201786666Y-68234819D02*
X201786666Y-67568152D01*
X201786666Y-67234819D02*
X201834285Y-67282438D01*
X201834285Y-67282438D02*
X201786666Y-67330057D01*
X201786666Y-67330057D02*
X201739047Y-67282438D01*
X201739047Y-67282438D02*
X201786666Y-67234819D01*
X201786666Y-67234819D02*
X201786666Y-67330057D01*
X201405714Y-68234819D02*
X200881905Y-67568152D01*
X201405714Y-67568152D02*
X200881905Y-68234819D01*
X200120000Y-68187200D02*
X200215238Y-68234819D01*
X200215238Y-68234819D02*
X200405714Y-68234819D01*
X200405714Y-68234819D02*
X200500952Y-68187200D01*
X200500952Y-68187200D02*
X200548571Y-68091961D01*
X200548571Y-68091961D02*
X200548571Y-67711009D01*
X200548571Y-67711009D02*
X200500952Y-67615771D01*
X200500952Y-67615771D02*
X200405714Y-67568152D01*
X200405714Y-67568152D02*
X200215238Y-67568152D01*
X200215238Y-67568152D02*
X200120000Y-67615771D01*
X200120000Y-67615771D02*
X200072381Y-67711009D01*
X200072381Y-67711009D02*
X200072381Y-67806247D01*
X200072381Y-67806247D02*
X200548571Y-67901485D01*
X199500952Y-68234819D02*
X199596190Y-68187200D01*
X199596190Y-68187200D02*
X199643809Y-68091961D01*
X199643809Y-68091961D02*
X199643809Y-67234819D01*
X198691428Y-68234819D02*
X198691428Y-67234819D01*
X198691428Y-68187200D02*
X198786666Y-68234819D01*
X198786666Y-68234819D02*
X198977142Y-68234819D01*
X198977142Y-68234819D02*
X199072380Y-68187200D01*
X199072380Y-68187200D02*
X199119999Y-68139580D01*
X199119999Y-68139580D02*
X199167618Y-68044342D01*
X199167618Y-68044342D02*
X199167618Y-67758628D01*
X199167618Y-67758628D02*
X199119999Y-67663390D01*
X199119999Y-67663390D02*
X199072380Y-67615771D01*
X199072380Y-67615771D02*
X198977142Y-67568152D01*
X198977142Y-67568152D02*
X198786666Y-67568152D01*
X198786666Y-67568152D02*
X198691428Y-67615771D01*
X198215237Y-68234819D02*
X198215237Y-67568152D01*
X198215237Y-67758628D02*
X198167618Y-67663390D01*
X198167618Y-67663390D02*
X198119999Y-67615771D01*
X198119999Y-67615771D02*
X198024761Y-67568152D01*
X198024761Y-67568152D02*
X197929523Y-67568152D01*
X197596189Y-68234819D02*
X197596189Y-67568152D01*
X197596189Y-67234819D02*
X197643808Y-67282438D01*
X197643808Y-67282438D02*
X197596189Y-67330057D01*
X197596189Y-67330057D02*
X197548570Y-67282438D01*
X197548570Y-67282438D02*
X197596189Y-67234819D01*
X197596189Y-67234819D02*
X197596189Y-67330057D01*
X197215237Y-67568152D02*
X196977142Y-68234819D01*
X196977142Y-68234819D02*
X196739047Y-67568152D01*
X195977142Y-68187200D02*
X196072380Y-68234819D01*
X196072380Y-68234819D02*
X196262856Y-68234819D01*
X196262856Y-68234819D02*
X196358094Y-68187200D01*
X196358094Y-68187200D02*
X196405713Y-68091961D01*
X196405713Y-68091961D02*
X196405713Y-67711009D01*
X196405713Y-67711009D02*
X196358094Y-67615771D01*
X196358094Y-67615771D02*
X196262856Y-67568152D01*
X196262856Y-67568152D02*
X196072380Y-67568152D01*
X196072380Y-67568152D02*
X195977142Y-67615771D01*
X195977142Y-67615771D02*
X195929523Y-67711009D01*
X195929523Y-67711009D02*
X195929523Y-67806247D01*
X195929523Y-67806247D02*
X196405713Y-67901485D01*
X195739047Y-68330057D02*
X194977142Y-68330057D01*
X194739046Y-68234819D02*
X194739046Y-67568152D01*
X194739046Y-67234819D02*
X194786665Y-67282438D01*
X194786665Y-67282438D02*
X194739046Y-67330057D01*
X194739046Y-67330057D02*
X194691427Y-67282438D01*
X194691427Y-67282438D02*
X194739046Y-67234819D01*
X194739046Y-67234819D02*
X194739046Y-67330057D01*
X194262856Y-67568152D02*
X194262856Y-68234819D01*
X194262856Y-67663390D02*
X194215237Y-67615771D01*
X194215237Y-67615771D02*
X194119999Y-67568152D01*
X194119999Y-67568152D02*
X193977142Y-67568152D01*
X193977142Y-67568152D02*
X193881904Y-67615771D01*
X193881904Y-67615771D02*
X193834285Y-67711009D01*
X193834285Y-67711009D02*
X193834285Y-68234819D01*
X193358094Y-67568152D02*
X193358094Y-68568152D01*
X193358094Y-67615771D02*
X193262856Y-67568152D01*
X193262856Y-67568152D02*
X193072380Y-67568152D01*
X193072380Y-67568152D02*
X192977142Y-67615771D01*
X192977142Y-67615771D02*
X192929523Y-67663390D01*
X192929523Y-67663390D02*
X192881904Y-67758628D01*
X192881904Y-67758628D02*
X192881904Y-68044342D01*
X192881904Y-68044342D02*
X192929523Y-68139580D01*
X192929523Y-68139580D02*
X192977142Y-68187200D01*
X192977142Y-68187200D02*
X193072380Y-68234819D01*
X193072380Y-68234819D02*
X193262856Y-68234819D01*
X193262856Y-68234819D02*
X193358094Y-68187200D01*
X192024761Y-67568152D02*
X192024761Y-68234819D01*
X192453332Y-67568152D02*
X192453332Y-68091961D01*
X192453332Y-68091961D02*
X192405713Y-68187200D01*
X192405713Y-68187200D02*
X192310475Y-68234819D01*
X192310475Y-68234819D02*
X192167618Y-68234819D01*
X192167618Y-68234819D02*
X192072380Y-68187200D01*
X192072380Y-68187200D02*
X192024761Y-68139580D01*
X191691427Y-67568152D02*
X191310475Y-67568152D01*
X191548570Y-67234819D02*
X191548570Y-68091961D01*
X191548570Y-68091961D02*
X191500951Y-68187200D01*
X191500951Y-68187200D02*
X191405713Y-68234819D01*
X191405713Y-68234819D02*
X191310475Y-68234819D01*
X179917618Y-45864819D02*
X179917618Y-44864819D01*
X179917618Y-45341009D02*
X179346190Y-45341009D01*
X179346190Y-45864819D02*
X179346190Y-44864819D01*
X178298571Y-45864819D02*
X178631904Y-45388628D01*
X178869999Y-45864819D02*
X178869999Y-44864819D01*
X178869999Y-44864819D02*
X178489047Y-44864819D01*
X178489047Y-44864819D02*
X178393809Y-44912438D01*
X178393809Y-44912438D02*
X178346190Y-44960057D01*
X178346190Y-44960057D02*
X178298571Y-45055295D01*
X178298571Y-45055295D02*
X178298571Y-45198152D01*
X178298571Y-45198152D02*
X178346190Y-45293390D01*
X178346190Y-45293390D02*
X178393809Y-45341009D01*
X178393809Y-45341009D02*
X178489047Y-45388628D01*
X178489047Y-45388628D02*
X178869999Y-45388628D01*
X177869999Y-45341009D02*
X177536666Y-45341009D01*
X177393809Y-45864819D02*
X177869999Y-45864819D01*
X177869999Y-45864819D02*
X177869999Y-44864819D01*
X177869999Y-44864819D02*
X177393809Y-44864819D01*
X177012856Y-45817200D02*
X176869999Y-45864819D01*
X176869999Y-45864819D02*
X176631904Y-45864819D01*
X176631904Y-45864819D02*
X176536666Y-45817200D01*
X176536666Y-45817200D02*
X176489047Y-45769580D01*
X176489047Y-45769580D02*
X176441428Y-45674342D01*
X176441428Y-45674342D02*
X176441428Y-45579104D01*
X176441428Y-45579104D02*
X176489047Y-45483866D01*
X176489047Y-45483866D02*
X176536666Y-45436247D01*
X176536666Y-45436247D02*
X176631904Y-45388628D01*
X176631904Y-45388628D02*
X176822380Y-45341009D01*
X176822380Y-45341009D02*
X176917618Y-45293390D01*
X176917618Y-45293390D02*
X176965237Y-45245771D01*
X176965237Y-45245771D02*
X177012856Y-45150533D01*
X177012856Y-45150533D02*
X177012856Y-45055295D01*
X177012856Y-45055295D02*
X176965237Y-44960057D01*
X176965237Y-44960057D02*
X176917618Y-44912438D01*
X176917618Y-44912438D02*
X176822380Y-44864819D01*
X176822380Y-44864819D02*
X176584285Y-44864819D01*
X176584285Y-44864819D02*
X176441428Y-44912438D01*
X176012856Y-45341009D02*
X175679523Y-45341009D01*
X175536666Y-45864819D02*
X176012856Y-45864819D01*
X176012856Y-45864819D02*
X176012856Y-44864819D01*
X176012856Y-44864819D02*
X175536666Y-44864819D01*
X175250951Y-44864819D02*
X174679523Y-44864819D01*
X174965237Y-45864819D02*
X174965237Y-44864819D01*
X170828571Y-43951009D02*
X171161904Y-43951009D01*
X171161904Y-44474819D02*
X171161904Y-43474819D01*
X171161904Y-43474819D02*
X170685714Y-43474819D01*
X170304761Y-44474819D02*
X170304761Y-43474819D01*
X169828571Y-43951009D02*
X169495238Y-43951009D01*
X169352381Y-44474819D02*
X169828571Y-44474819D01*
X169828571Y-44474819D02*
X169828571Y-43474819D01*
X169828571Y-43474819D02*
X169352381Y-43474819D01*
X168447619Y-44474819D02*
X168923809Y-44474819D01*
X168923809Y-44474819D02*
X168923809Y-43474819D01*
X168114285Y-44474819D02*
X168114285Y-43474819D01*
X168114285Y-43474819D02*
X167876190Y-43474819D01*
X167876190Y-43474819D02*
X167733333Y-43522438D01*
X167733333Y-43522438D02*
X167638095Y-43617676D01*
X167638095Y-43617676D02*
X167590476Y-43712914D01*
X167590476Y-43712914D02*
X167542857Y-43903390D01*
X167542857Y-43903390D02*
X167542857Y-44046247D01*
X167542857Y-44046247D02*
X167590476Y-44236723D01*
X167590476Y-44236723D02*
X167638095Y-44331961D01*
X167638095Y-44331961D02*
X167733333Y-44427200D01*
X167733333Y-44427200D02*
X167876190Y-44474819D01*
X167876190Y-44474819D02*
X168114285Y-44474819D01*
X166923809Y-43474819D02*
X166828571Y-43474819D01*
X166828571Y-43474819D02*
X166733333Y-43522438D01*
X166733333Y-43522438D02*
X166685714Y-43570057D01*
X166685714Y-43570057D02*
X166638095Y-43665295D01*
X166638095Y-43665295D02*
X166590476Y-43855771D01*
X166590476Y-43855771D02*
X166590476Y-44093866D01*
X166590476Y-44093866D02*
X166638095Y-44284342D01*
X166638095Y-44284342D02*
X166685714Y-44379580D01*
X166685714Y-44379580D02*
X166733333Y-44427200D01*
X166733333Y-44427200D02*
X166828571Y-44474819D01*
X166828571Y-44474819D02*
X166923809Y-44474819D01*
X166923809Y-44474819D02*
X167019047Y-44427200D01*
X167019047Y-44427200D02*
X167066666Y-44379580D01*
X167066666Y-44379580D02*
X167114285Y-44284342D01*
X167114285Y-44284342D02*
X167161904Y-44093866D01*
X167161904Y-44093866D02*
X167161904Y-43855771D01*
X167161904Y-43855771D02*
X167114285Y-43665295D01*
X167114285Y-43665295D02*
X167066666Y-43570057D01*
X167066666Y-43570057D02*
X167019047Y-43522438D01*
X167019047Y-43522438D02*
X166923809Y-43474819D01*
X199829523Y-35634819D02*
X199829523Y-34634819D01*
X199829523Y-34634819D02*
X199448571Y-34634819D01*
X199448571Y-34634819D02*
X199353333Y-34682438D01*
X199353333Y-34682438D02*
X199305714Y-34730057D01*
X199305714Y-34730057D02*
X199258095Y-34825295D01*
X199258095Y-34825295D02*
X199258095Y-34968152D01*
X199258095Y-34968152D02*
X199305714Y-35063390D01*
X199305714Y-35063390D02*
X199353333Y-35111009D01*
X199353333Y-35111009D02*
X199448571Y-35158628D01*
X199448571Y-35158628D02*
X199829523Y-35158628D01*
X198829523Y-35634819D02*
X198829523Y-34634819D01*
X198448571Y-34634819D02*
X197781905Y-35634819D01*
X197781905Y-34634819D02*
X198448571Y-35634819D01*
X197400952Y-35111009D02*
X197067619Y-35111009D01*
X196924762Y-35634819D02*
X197400952Y-35634819D01*
X197400952Y-35634819D02*
X197400952Y-34634819D01*
X197400952Y-34634819D02*
X196924762Y-34634819D01*
X196020000Y-35634819D02*
X196496190Y-35634819D01*
X196496190Y-35634819D02*
X196496190Y-34634819D01*
X195686666Y-35634819D02*
X195686666Y-34634819D01*
X195686666Y-34634819D02*
X195448571Y-34634819D01*
X195448571Y-34634819D02*
X195305714Y-34682438D01*
X195305714Y-34682438D02*
X195210476Y-34777676D01*
X195210476Y-34777676D02*
X195162857Y-34872914D01*
X195162857Y-34872914D02*
X195115238Y-35063390D01*
X195115238Y-35063390D02*
X195115238Y-35206247D01*
X195115238Y-35206247D02*
X195162857Y-35396723D01*
X195162857Y-35396723D02*
X195210476Y-35491961D01*
X195210476Y-35491961D02*
X195305714Y-35587200D01*
X195305714Y-35587200D02*
X195448571Y-35634819D01*
X195448571Y-35634819D02*
X195686666Y-35634819D01*
X194115238Y-35634819D02*
X194448571Y-35158628D01*
X194686666Y-35634819D02*
X194686666Y-34634819D01*
X194686666Y-34634819D02*
X194305714Y-34634819D01*
X194305714Y-34634819D02*
X194210476Y-34682438D01*
X194210476Y-34682438D02*
X194162857Y-34730057D01*
X194162857Y-34730057D02*
X194115238Y-34825295D01*
X194115238Y-34825295D02*
X194115238Y-34968152D01*
X194115238Y-34968152D02*
X194162857Y-35063390D01*
X194162857Y-35063390D02*
X194210476Y-35111009D01*
X194210476Y-35111009D02*
X194305714Y-35158628D01*
X194305714Y-35158628D02*
X194686666Y-35158628D01*
X193734285Y-35349104D02*
X193258095Y-35349104D01*
X193829523Y-35634819D02*
X193496190Y-34634819D01*
X193496190Y-34634819D02*
X193162857Y-35634819D01*
X192924761Y-34634819D02*
X192686666Y-35634819D01*
X192686666Y-35634819D02*
X192496190Y-34920533D01*
X192496190Y-34920533D02*
X192305714Y-35634819D01*
X192305714Y-35634819D02*
X192067619Y-34634819D01*
X191686666Y-35111009D02*
X191353333Y-35111009D01*
X191210476Y-35634819D02*
X191686666Y-35634819D01*
X191686666Y-35634819D02*
X191686666Y-34634819D01*
X191686666Y-34634819D02*
X191210476Y-34634819D01*
X190781904Y-35634819D02*
X190781904Y-34634819D01*
X190781904Y-34634819D02*
X190210476Y-35634819D01*
X190210476Y-35634819D02*
X190210476Y-34634819D01*
D11*
%TO.C,TP81*%
X176400000Y-53360000D02*
X176400000Y-54760000D01*
X176400000Y-54760000D02*
X177800000Y-54760000D01*
X177800000Y-53360000D02*
X176400000Y-53360000D01*
X177800000Y-54760000D02*
X177800000Y-53360000D01*
%TO.C,TP79*%
X188590000Y-62770000D02*
X188590000Y-64170000D01*
X188590000Y-64170000D02*
X189990000Y-64170000D01*
X189990000Y-62770000D02*
X188590000Y-62770000D01*
X189990000Y-64170000D02*
X189990000Y-62770000D01*
%TO.C,TP86*%
X198340000Y-47660000D02*
X198340000Y-49060000D01*
X198340000Y-49060000D02*
X199740000Y-49060000D01*
X199740000Y-47660000D02*
X198340000Y-47660000D01*
X199740000Y-49060000D02*
X199740000Y-47660000D01*
%TO.C,TP5*%
X192060000Y-65150000D02*
X192060000Y-66550000D01*
X192060000Y-66550000D02*
X193460000Y-66550000D01*
X193460000Y-65150000D02*
X192060000Y-65150000D01*
X193460000Y-66550000D02*
X193460000Y-65150000D01*
%TO.C,TP83*%
X180190000Y-47330000D02*
X180190000Y-48730000D01*
X180190000Y-48730000D02*
X181590000Y-48730000D01*
X181590000Y-47330000D02*
X180190000Y-47330000D01*
X181590000Y-48730000D02*
X181590000Y-47330000D01*
%TO.C,TP7*%
X195614999Y-53389999D02*
X195614999Y-54789999D01*
X195614999Y-54789999D02*
X197014999Y-54789999D01*
X197014999Y-53389999D02*
X195614999Y-53389999D01*
X197014999Y-54789999D02*
X197014999Y-53389999D01*
%TO.C,TP80*%
X186260000Y-59060000D02*
X186260000Y-60460000D01*
X186260000Y-60460000D02*
X187660000Y-60460000D01*
X187660000Y-59060000D02*
X186260000Y-59060000D01*
X187660000Y-60460000D02*
X187660000Y-59060000D01*
%TO.C,TP85*%
X189410000Y-47660000D02*
X189410000Y-49060000D01*
X189410000Y-49060000D02*
X190810000Y-49060000D01*
X190810000Y-47660000D02*
X189410000Y-47660000D01*
X190810000Y-49060000D02*
X190810000Y-47660000D01*
%TO.C,TP87*%
X171510000Y-46270000D02*
X171510000Y-47670000D01*
X171510000Y-47670000D02*
X172910000Y-47670000D01*
X172910000Y-46270000D02*
X171510000Y-46270000D01*
X172910000Y-47670000D02*
X172910000Y-46270000D01*
%TO.C,TP6*%
X197737501Y-65430000D02*
X197737501Y-66830000D01*
X197737501Y-66830000D02*
X199137501Y-66830000D01*
X199137501Y-65430000D02*
X197737501Y-65430000D01*
X199137501Y-66830000D02*
X199137501Y-65430000D01*
%TO.C,TP82*%
X176720000Y-46150000D02*
X176720000Y-47550000D01*
X176720000Y-47550000D02*
X178120000Y-47550000D01*
X178120000Y-46150000D02*
X176720000Y-46150000D01*
X178120000Y-47550000D02*
X178120000Y-46150000D01*
%TO.C,TP88*%
X171480000Y-43740000D02*
X171480000Y-45140000D01*
X171480000Y-45140000D02*
X172880000Y-45140000D01*
X172880000Y-43740000D02*
X171480000Y-43740000D01*
X172880000Y-45140000D02*
X172880000Y-43740000D01*
%TO.C,TP84*%
X194320000Y-32930000D02*
X194320000Y-34330000D01*
X194320000Y-34330000D02*
X195720000Y-34330000D01*
X195720000Y-32930000D02*
X194320000Y-32930000D01*
X195720000Y-34330000D02*
X195720000Y-32930000D01*
%TD*%
M02*
