%TF.GenerationSoftware,KiCad,Pcbnew,9.0.0*%
%TF.CreationDate,2025-04-23T17:39:51-07:00*%
%TF.ProjectId,ntscv2,6e747363-7632-42e6-9b69-6361645f7063,rev?*%
%TF.SameCoordinates,Original*%
%TF.FileFunction,Soldermask,Top*%
%TF.FilePolarity,Negative*%
%FSLAX46Y46*%
G04 Gerber Fmt 4.6, Leading zero omitted, Abs format (unit mm)*
G04 Created by KiCad (PCBNEW 9.0.0) date 2025-04-23 17:39:51*
%MOMM*%
%LPD*%
G01*
G04 APERTURE LIST*
G04 Aperture macros list*
%AMRoundRect*
0 Rectangle with rounded corners*
0 $1 Rounding radius*
0 $2 $3 $4 $5 $6 $7 $8 $9 X,Y pos of 4 corners*
0 Add a 4 corners polygon primitive as box body*
4,1,4,$2,$3,$4,$5,$6,$7,$8,$9,$2,$3,0*
0 Add four circle primitives for the rounded corners*
1,1,$1+$1,$2,$3*
1,1,$1+$1,$4,$5*
1,1,$1+$1,$6,$7*
1,1,$1+$1,$8,$9*
0 Add four rect primitives between the rounded corners*
20,1,$1+$1,$2,$3,$4,$5,0*
20,1,$1+$1,$4,$5,$6,$7,0*
20,1,$1+$1,$6,$7,$8,$9,0*
20,1,$1+$1,$8,$9,$2,$3,0*%
G04 Aperture macros list end*
%ADD10RoundRect,0.100000X-0.637500X-0.100000X0.637500X-0.100000X0.637500X0.100000X-0.637500X0.100000X0*%
%ADD11RoundRect,0.160000X0.197500X0.160000X-0.197500X0.160000X-0.197500X-0.160000X0.197500X-0.160000X0*%
%ADD12RoundRect,0.112500X-0.112500X0.187500X-0.112500X-0.187500X0.112500X-0.187500X0.112500X0.187500X0*%
%ADD13RoundRect,0.112500X0.112500X-0.187500X0.112500X0.187500X-0.112500X0.187500X-0.112500X-0.187500X0*%
%ADD14RoundRect,0.225000X-0.250000X0.225000X-0.250000X-0.225000X0.250000X-0.225000X0.250000X0.225000X0*%
%ADD15RoundRect,0.160000X-0.197500X-0.160000X0.197500X-0.160000X0.197500X0.160000X-0.197500X0.160000X0*%
%ADD16RoundRect,0.250000X-0.550000X-0.550000X0.550000X-0.550000X0.550000X0.550000X-0.550000X0.550000X0*%
%ADD17C,1.600000*%
%ADD18C,1.400000*%
%ADD19O,1.400000X1.400000*%
%ADD20RoundRect,0.150000X0.150000X-0.875000X0.150000X0.875000X-0.150000X0.875000X-0.150000X-0.875000X0*%
%ADD21RoundRect,0.225000X0.250000X-0.225000X0.250000X0.225000X-0.250000X0.225000X-0.250000X-0.225000X0*%
%ADD22RoundRect,0.225000X0.225000X0.250000X-0.225000X0.250000X-0.225000X-0.250000X0.225000X-0.250000X0*%
%ADD23R,1.050000X1.500000*%
%ADD24O,1.050000X1.500000*%
%ADD25RoundRect,0.112500X-0.187500X-0.112500X0.187500X-0.112500X0.187500X0.112500X-0.187500X0.112500X0*%
%ADD26RoundRect,0.200000X0.275000X-0.200000X0.275000X0.200000X-0.275000X0.200000X-0.275000X-0.200000X0*%
%ADD27RoundRect,0.150000X-0.825000X-0.150000X0.825000X-0.150000X0.825000X0.150000X-0.825000X0.150000X0*%
%ADD28RoundRect,0.250000X0.325000X0.650000X-0.325000X0.650000X-0.325000X-0.650000X0.325000X-0.650000X0*%
%ADD29RoundRect,0.112500X0.187500X0.112500X-0.187500X0.112500X-0.187500X-0.112500X0.187500X-0.112500X0*%
%ADD30R,3.500000X3.500000*%
%ADD31C,4.000000*%
%ADD32RoundRect,0.250000X0.650000X-0.325000X0.650000X0.325000X-0.650000X0.325000X-0.650000X-0.325000X0*%
%ADD33RoundRect,0.250000X-0.650000X0.325000X-0.650000X-0.325000X0.650000X-0.325000X0.650000X0.325000X0*%
%ADD34RoundRect,0.250000X-0.325000X-0.650000X0.325000X-0.650000X0.325000X0.650000X-0.325000X0.650000X0*%
%ADD35RoundRect,0.225000X-0.225000X-0.250000X0.225000X-0.250000X0.225000X0.250000X-0.225000X0.250000X0*%
%ADD36RoundRect,0.100000X0.637500X0.100000X-0.637500X0.100000X-0.637500X-0.100000X0.637500X-0.100000X0*%
%ADD37RoundRect,0.150000X0.150000X-0.825000X0.150000X0.825000X-0.150000X0.825000X-0.150000X-0.825000X0*%
%ADD38C,4.700000*%
%ADD39RoundRect,0.225000X-0.335876X-0.017678X-0.017678X-0.335876X0.335876X0.017678X0.017678X0.335876X0*%
%ADD40RoundRect,0.150000X-0.150000X1.050000X-0.150000X-1.050000X0.150000X-1.050000X0.150000X1.050000X0*%
%ADD41RoundRect,0.100000X-0.675000X-0.100000X0.675000X-0.100000X0.675000X0.100000X-0.675000X0.100000X0*%
%ADD42RoundRect,0.102000X0.611000X0.611000X-0.611000X0.611000X-0.611000X-0.611000X0.611000X-0.611000X0*%
%ADD43C,1.426000*%
%ADD44RoundRect,0.200000X-0.200000X-0.275000X0.200000X-0.275000X0.200000X0.275000X-0.200000X0.275000X0*%
%ADD45RoundRect,0.200000X0.200000X0.275000X-0.200000X0.275000X-0.200000X-0.275000X0.200000X-0.275000X0*%
%ADD46R,1.700000X1.700000*%
%ADD47O,1.700000X1.700000*%
%ADD48RoundRect,0.250000X0.229810X-0.689429X0.689429X-0.229810X-0.229810X0.689429X-0.689429X0.229810X0*%
%ADD49RoundRect,0.200000X-0.275000X0.200000X-0.275000X-0.200000X0.275000X-0.200000X0.275000X0.200000X0*%
%ADD50RoundRect,0.150000X-1.050000X-0.150000X1.050000X-0.150000X1.050000X0.150000X-1.050000X0.150000X0*%
%ADD51RoundRect,0.100000X0.100000X-0.637500X0.100000X0.637500X-0.100000X0.637500X-0.100000X-0.637500X0*%
%ADD52RoundRect,0.102000X-0.611000X-0.611000X0.611000X-0.611000X0.611000X0.611000X-0.611000X0.611000X0*%
%ADD53RoundRect,0.150000X0.150000X-1.050000X0.150000X1.050000X-0.150000X1.050000X-0.150000X-1.050000X0*%
%ADD54C,1.500000*%
%ADD55R,2.000000X1.905000*%
%ADD56O,2.000000X1.905000*%
G04 APERTURE END LIST*
D10*
%TO.C,U12*%
X122690000Y-39540000D03*
X122690000Y-40190000D03*
X122690000Y-40840000D03*
X122690000Y-41490000D03*
X122690000Y-42140000D03*
X122690000Y-42790000D03*
X122690000Y-43440000D03*
X122690000Y-44090000D03*
X122690000Y-44740000D03*
X122690000Y-45390000D03*
X128415000Y-45390000D03*
X128415000Y-44740000D03*
X128415000Y-44090000D03*
X128415000Y-43440000D03*
X128415000Y-42790000D03*
X128415000Y-42140000D03*
X128415000Y-41490000D03*
X128415000Y-40840000D03*
X128415000Y-40190000D03*
X128415000Y-39540000D03*
%TD*%
D11*
%TO.C,R67*%
X116017500Y-58130000D03*
X114822500Y-58130000D03*
%TD*%
D12*
%TO.C,D30*%
X171590673Y-99065494D03*
X171590673Y-101165494D03*
%TD*%
D13*
%TO.C,D16*%
X153720001Y-94797501D03*
X153719997Y-92697501D03*
%TD*%
D14*
%TO.C,C11*%
X190990000Y-53500000D03*
X190990000Y-55050000D03*
%TD*%
D15*
%TO.C,R48*%
X118630000Y-80025000D03*
X119825000Y-80025000D03*
%TD*%
D11*
%TO.C,R66*%
X116017500Y-53480000D03*
X114822500Y-53480000D03*
%TD*%
D16*
%TO.C,U17*%
X117785001Y-38212498D03*
D17*
X117785001Y-40752498D03*
X117785001Y-43292498D03*
X117785001Y-45832498D03*
X117785001Y-48372498D03*
X117785001Y-50912498D03*
X117785001Y-53452498D03*
X117785001Y-55992498D03*
X117785001Y-58532498D03*
X117785001Y-61072498D03*
X117785001Y-63612498D03*
X117785001Y-66152498D03*
X117785001Y-68692498D03*
X117785001Y-71232498D03*
X117785001Y-73772498D03*
X117785001Y-76312498D03*
X133025001Y-76312498D03*
X133025001Y-73772498D03*
X133025001Y-71232498D03*
X133025001Y-68692498D03*
X133025001Y-66152498D03*
X133025001Y-63612498D03*
X133025001Y-61072498D03*
X133025001Y-58532498D03*
X133025001Y-55992498D03*
X133025001Y-53452498D03*
X133025001Y-50912498D03*
X133025001Y-48372498D03*
X133025001Y-45832498D03*
X133025001Y-43292498D03*
X133025001Y-40752498D03*
X133025001Y-38212498D03*
%TD*%
D18*
%TO.C,R7*%
X193994500Y-90069999D03*
D19*
X199074502Y-90069997D03*
%TD*%
D11*
%TO.C,R61*%
X116017500Y-42125000D03*
X114822500Y-42125000D03*
%TD*%
D20*
%TO.C,U35*%
X146465001Y-116734999D03*
X147735001Y-116734999D03*
X149005001Y-116735001D03*
X150275001Y-116734999D03*
X151545000Y-116734998D03*
X152815001Y-116734999D03*
X154085003Y-116734999D03*
X155355000Y-116734999D03*
X156625001Y-116735000D03*
X157895001Y-116734998D03*
X157895001Y-107434999D03*
X156625001Y-107434999D03*
X155355001Y-107434997D03*
X154085001Y-107434999D03*
X152815002Y-107435000D03*
X151545001Y-107434999D03*
X150274999Y-107434999D03*
X149005002Y-107434999D03*
X147735001Y-107434998D03*
X146465001Y-107435000D03*
%TD*%
D21*
%TO.C,C9*%
X180350000Y-56320000D03*
X180350000Y-54770000D03*
%TD*%
%TO.C,C22*%
X152800000Y-32300000D03*
X152800000Y-30750000D03*
%TD*%
D12*
%TO.C,D26*%
X169682338Y-99026494D03*
X169682338Y-101126494D03*
%TD*%
D22*
%TO.C,C10*%
X129295000Y-38250000D03*
X127745000Y-38250000D03*
%TD*%
D23*
%TO.C,Q1*%
X190794499Y-93140000D03*
D24*
X189524499Y-93139999D03*
X188254499Y-93140000D03*
%TD*%
D11*
%TO.C,R59*%
X116017500Y-56560000D03*
X114822500Y-56560000D03*
%TD*%
D12*
%TO.C,D25*%
X162059998Y-99035996D03*
X162060002Y-101135998D03*
%TD*%
D25*
%TO.C,D4*%
X197387501Y-66460000D03*
X199487501Y-66460000D03*
%TD*%
D26*
%TO.C,R25*%
X149224006Y-104010991D03*
X149224006Y-102360995D03*
%TD*%
D27*
%TO.C,U10*%
X194499998Y-41870000D03*
X194499998Y-43140000D03*
X194499999Y-44409999D03*
X194499998Y-45680000D03*
X194499998Y-46950000D03*
X194499998Y-48220001D03*
X194499998Y-49490001D03*
X199449998Y-49490000D03*
X199449998Y-48220000D03*
X199449997Y-46950001D03*
X199449998Y-45680000D03*
X199449998Y-44410000D03*
X199449998Y-43139999D03*
X199449998Y-41869999D03*
%TD*%
D11*
%TO.C,R57*%
X116017500Y-51660000D03*
X114822500Y-51660000D03*
%TD*%
D21*
%TO.C,C36*%
X144675000Y-59575000D03*
X144675000Y-58025000D03*
%TD*%
D18*
%TO.C,R2*%
X191324499Y-90069999D03*
D19*
X186244500Y-90069999D03*
%TD*%
D26*
%TO.C,R21*%
X147324006Y-104085991D03*
X147324006Y-102435995D03*
%TD*%
D11*
%TO.C,R55*%
X121147500Y-42850000D03*
X119952500Y-42850000D03*
%TD*%
D27*
%TO.C,U19*%
X148500000Y-41900001D03*
X148500000Y-43170001D03*
X148500001Y-44440000D03*
X148500000Y-45710001D03*
X148500000Y-46980001D03*
X148500000Y-48250002D03*
X148500000Y-49520002D03*
X153450000Y-49520001D03*
X153450000Y-48250001D03*
X153449999Y-46980002D03*
X153450000Y-45710001D03*
X153450000Y-44440001D03*
X153450000Y-43170000D03*
X153450000Y-41900000D03*
%TD*%
D28*
%TO.C,C45*%
X143625002Y-80325000D03*
X140675000Y-80325000D03*
%TD*%
D12*
%TO.C,D28*%
X154815663Y-99065494D03*
X154815663Y-101165494D03*
%TD*%
D11*
%TO.C,R44*%
X132072500Y-80975000D03*
X130877500Y-80975000D03*
%TD*%
D29*
%TO.C,D2*%
X192247501Y-64480000D03*
X190147501Y-64480000D03*
%TD*%
D26*
%TO.C,R23*%
X163875000Y-104024999D03*
X163875000Y-102375001D03*
%TD*%
D30*
%TO.C,J2*%
X186475000Y-113525000D03*
D31*
X191500000Y-118550000D03*
X191500000Y-108500000D03*
X181450000Y-118550000D03*
X181450000Y-108500000D03*
%TD*%
D32*
%TO.C,C46*%
X175610000Y-79240002D03*
X175610000Y-76290000D03*
%TD*%
D33*
%TO.C,C49*%
X164970000Y-40160000D03*
X164970000Y-43110002D03*
%TD*%
D34*
%TO.C,C42*%
X131700000Y-33010000D03*
X134650002Y-33010000D03*
%TD*%
D11*
%TO.C,R38*%
X132072500Y-85775000D03*
X130877500Y-85775000D03*
%TD*%
D18*
%TO.C,R6*%
X183594500Y-94779999D03*
D19*
X183594498Y-89699998D03*
%TD*%
D35*
%TO.C,C25*%
X127765001Y-67427501D03*
X129315001Y-67427501D03*
%TD*%
D21*
%TO.C,C35*%
X144640000Y-50495000D03*
X144640000Y-48945000D03*
%TD*%
D35*
%TO.C,C27*%
X130585000Y-31130000D03*
X132135000Y-31130000D03*
%TD*%
D21*
%TO.C,C17*%
X169650000Y-56290000D03*
X169650000Y-54740000D03*
%TD*%
D27*
%TO.C,U22*%
X145407499Y-31525000D03*
X145407499Y-32795000D03*
X145407500Y-34065000D03*
X145407499Y-35335000D03*
X145407499Y-36605001D03*
X145407499Y-37875001D03*
X145407499Y-39145001D03*
X150357499Y-39145002D03*
X150357499Y-37875002D03*
X150357498Y-36605002D03*
X150357499Y-35335002D03*
X150357499Y-34065001D03*
X150357499Y-32795001D03*
X150357499Y-31525001D03*
%TD*%
D10*
%TO.C,U13*%
X137079433Y-43821980D03*
X137079433Y-44471979D03*
X137079433Y-45121979D03*
X137079432Y-45771978D03*
X137079433Y-46421979D03*
X137079433Y-47071979D03*
X137079433Y-47721979D03*
X137079433Y-48371979D03*
X137079433Y-49021979D03*
X137079433Y-49671979D03*
X142804433Y-49671978D03*
X142804433Y-49021979D03*
X142804433Y-48371979D03*
X142804434Y-47721980D03*
X142804433Y-47071979D03*
X142804433Y-46421979D03*
X142804433Y-45771979D03*
X142804433Y-45121979D03*
X142804433Y-44471979D03*
X142804433Y-43821979D03*
%TD*%
D26*
%TO.C,R29*%
X151014005Y-104015490D03*
X151014005Y-102365494D03*
%TD*%
D15*
%TO.C,R45*%
X118630000Y-85800000D03*
X119825000Y-85800000D03*
%TD*%
D36*
%TO.C,U26*%
X160085001Y-89385003D03*
X160085001Y-88735003D03*
X160085001Y-88085003D03*
X160085001Y-87435003D03*
X160085001Y-86785003D03*
X160085001Y-86135003D03*
X160085001Y-85485003D03*
X160085001Y-84835003D03*
X160085001Y-84185003D03*
X160085001Y-83535003D03*
X160085001Y-82885003D03*
X160085001Y-82235003D03*
X154360001Y-82235003D03*
X154360001Y-82885003D03*
X154360001Y-83535003D03*
X154360001Y-84185003D03*
X154360001Y-84835003D03*
X154360001Y-85485003D03*
X154360001Y-86135003D03*
X154360001Y-86785003D03*
X154360001Y-87435003D03*
X154360001Y-88085003D03*
X154360001Y-88735003D03*
X154360001Y-89385003D03*
%TD*%
D35*
%TO.C,C24*%
X145625000Y-80805002D03*
X147175000Y-80805002D03*
%TD*%
D22*
%TO.C,C33*%
X129290001Y-58932501D03*
X127740001Y-58932501D03*
%TD*%
D37*
%TO.C,U4*%
X160499999Y-58564999D03*
X161769999Y-58564999D03*
X163040001Y-58564998D03*
X164309998Y-58564998D03*
X165579999Y-58564999D03*
X166850000Y-58564999D03*
X168120000Y-58564999D03*
X168119999Y-53614999D03*
X166849999Y-53614999D03*
X165579997Y-53615000D03*
X164310000Y-53615000D03*
X163039999Y-53614999D03*
X161769998Y-53614999D03*
X160499998Y-53614999D03*
%TD*%
D29*
%TO.C,D41*%
X172307511Y-51284995D03*
X170207505Y-51284999D03*
%TD*%
D23*
%TO.C,Q3*%
X188304500Y-100769999D03*
D24*
X189574500Y-100770000D03*
X190844500Y-100769999D03*
%TD*%
D18*
%TO.C,R11*%
X201644500Y-89729999D03*
D19*
X201644502Y-94810000D03*
%TD*%
D11*
%TO.C,R53*%
X121147500Y-40250000D03*
X119952500Y-40250000D03*
%TD*%
D26*
%TO.C,R27*%
X165890670Y-104067495D03*
X165890670Y-102417497D03*
%TD*%
D35*
%TO.C,C20*%
X169540000Y-39010000D03*
X171090000Y-39010000D03*
%TD*%
D27*
%TO.C,U15*%
X167800000Y-41880001D03*
X167800000Y-43150001D03*
X167800001Y-44420003D03*
X167800000Y-45690001D03*
X167800000Y-46960001D03*
X167800000Y-48230002D03*
X167800000Y-49500002D03*
X172750000Y-49500001D03*
X172750000Y-48230001D03*
X172749999Y-46959999D03*
X172750000Y-45690001D03*
X172750000Y-44420001D03*
X172750000Y-43150000D03*
X172750000Y-41880000D03*
%TD*%
%TO.C,U37*%
X146141332Y-82300000D03*
X146141332Y-83570000D03*
X146141333Y-84840002D03*
X146141332Y-86110000D03*
X146141332Y-87380000D03*
X146141332Y-88650001D03*
X146141332Y-89920001D03*
X151091332Y-89920000D03*
X151091332Y-88650000D03*
X151091331Y-87379998D03*
X151091332Y-86110000D03*
X151091332Y-84840000D03*
X151091332Y-83569999D03*
X151091332Y-82299999D03*
%TD*%
D10*
%TO.C,U5*%
X137105003Y-61509998D03*
X137105003Y-62159997D03*
X137105002Y-62809996D03*
X137105002Y-63459996D03*
X137105003Y-64109997D03*
X137105003Y-64759997D03*
X137105003Y-65409997D03*
X137105003Y-66059997D03*
X137105003Y-66709997D03*
X137105003Y-67359997D03*
X142830003Y-67359996D03*
X142830003Y-66709997D03*
X142830004Y-66059998D03*
X142830004Y-65409998D03*
X142830003Y-64759997D03*
X142830003Y-64109997D03*
X142830003Y-63459997D03*
X142830003Y-62809997D03*
X142830003Y-62159997D03*
X142830003Y-61509997D03*
%TD*%
%TO.C,U7*%
X136993265Y-52357070D03*
X136993265Y-53007069D03*
X136993264Y-53657068D03*
X136993264Y-54307068D03*
X136993265Y-54957069D03*
X136993265Y-55607069D03*
X136993265Y-56257069D03*
X136993265Y-56907069D03*
X136993265Y-57557069D03*
X136993265Y-58207069D03*
X142718265Y-58207068D03*
X142718265Y-57557069D03*
X142718266Y-56907070D03*
X142718266Y-56257070D03*
X142718265Y-55607069D03*
X142718265Y-54957069D03*
X142718265Y-54307069D03*
X142718265Y-53657069D03*
X142718265Y-53007069D03*
X142718265Y-52357069D03*
%TD*%
D38*
%TO.C,H3*%
X200900000Y-28800000D03*
%TD*%
D14*
%TO.C,C8*%
X183590000Y-41355000D03*
X183590000Y-42905000D03*
%TD*%
D12*
%TO.C,D36*%
X146991736Y-63572929D03*
X146991736Y-65672929D03*
%TD*%
%TO.C,D21*%
X160114005Y-99040494D03*
X160114005Y-101140494D03*
%TD*%
D36*
%TO.C,U20*%
X128245002Y-86415001D03*
X128245002Y-85765002D03*
X128245003Y-85115003D03*
X128245003Y-84465003D03*
X128245002Y-83815002D03*
X128245002Y-83165002D03*
X128245002Y-82515002D03*
X128245002Y-81865002D03*
X128245002Y-81215002D03*
X128245002Y-80565002D03*
X122520002Y-80565003D03*
X122520002Y-81215002D03*
X122520001Y-81865001D03*
X122520001Y-82515001D03*
X122520002Y-83165002D03*
X122520002Y-83815002D03*
X122520002Y-84465002D03*
X122520002Y-85115002D03*
X122520002Y-85765002D03*
X122520002Y-86415002D03*
%TD*%
D15*
%TO.C,R33*%
X118630000Y-86750000D03*
X119825000Y-86750000D03*
%TD*%
D37*
%TO.C,U38*%
X192504999Y-58514999D03*
X193774999Y-58514999D03*
X195044999Y-58514999D03*
X196314999Y-58514999D03*
X197584999Y-58514999D03*
X198854999Y-58514999D03*
X200124999Y-58514999D03*
X200124999Y-53564999D03*
X198854999Y-53564999D03*
X197584999Y-53564999D03*
X196314999Y-53564999D03*
X195044999Y-53564999D03*
X193774999Y-53564999D03*
X192504999Y-53564999D03*
%TD*%
D20*
%TO.C,U34*%
X161640000Y-116762498D03*
X162910000Y-116762498D03*
X164180000Y-116762500D03*
X165450000Y-116762498D03*
X166719999Y-116762497D03*
X167990000Y-116762498D03*
X169260002Y-116762498D03*
X170529999Y-116762498D03*
X171800000Y-116762499D03*
X173070000Y-116762497D03*
X173070000Y-107462498D03*
X171800000Y-107462498D03*
X170530000Y-107462496D03*
X169260000Y-107462498D03*
X167990001Y-107462499D03*
X166720000Y-107462498D03*
X165449998Y-107462498D03*
X164180001Y-107462498D03*
X162910000Y-107462497D03*
X161640000Y-107462499D03*
%TD*%
D13*
%TO.C,D20*%
X146000004Y-94800000D03*
X146000000Y-92700000D03*
%TD*%
D26*
%TO.C,R15*%
X160070669Y-104048990D03*
X160070669Y-102398992D03*
%TD*%
%TO.C,R28*%
X173564005Y-104115492D03*
X173564005Y-102465494D03*
%TD*%
D11*
%TO.C,R40*%
X132072500Y-81950000D03*
X130877500Y-81950000D03*
%TD*%
D26*
%TO.C,R26*%
X156739005Y-104040492D03*
X156739005Y-102390494D03*
%TD*%
D39*
%TO.C,C29*%
X134803984Y-87103984D03*
X135900000Y-88200000D03*
%TD*%
D12*
%TO.C,D23*%
X145314005Y-99065494D03*
X145314005Y-101165494D03*
%TD*%
D18*
%TO.C,R13*%
X193954500Y-103870000D03*
D19*
X199034501Y-103869998D03*
%TD*%
D27*
%TO.C,U36*%
X138750000Y-82305003D03*
X138750000Y-83575003D03*
X138750001Y-84845005D03*
X138750000Y-86115003D03*
X138750000Y-87385003D03*
X138750000Y-88655004D03*
X138750000Y-89925004D03*
X143700000Y-89925003D03*
X143700000Y-88655003D03*
X143699999Y-87385001D03*
X143700000Y-86115003D03*
X143700000Y-84845003D03*
X143700000Y-83575002D03*
X143700000Y-82305002D03*
%TD*%
D40*
%TO.C,U21*%
X165029998Y-30300000D03*
X163759999Y-30299999D03*
X162489999Y-30299999D03*
X161219999Y-30299999D03*
X159949999Y-30299999D03*
X158679999Y-30299999D03*
X157409998Y-30300000D03*
X156139999Y-30299999D03*
X156140000Y-36800000D03*
X157409999Y-36800001D03*
X158679999Y-36800001D03*
X159949999Y-36800001D03*
X161219999Y-36800001D03*
X162489999Y-36800001D03*
X163760000Y-36800000D03*
X165029999Y-36800001D03*
%TD*%
D35*
%TO.C,C28*%
X122950000Y-87750000D03*
X124500000Y-87750000D03*
%TD*%
D41*
%TO.C,U14*%
X122660000Y-31050003D03*
X122660001Y-31700003D03*
X122660001Y-32350004D03*
X122660001Y-33000003D03*
X122660001Y-33650003D03*
X122660000Y-34300003D03*
X122660001Y-34950003D03*
X122660001Y-35600003D03*
X122660001Y-36250004D03*
X122660000Y-36900003D03*
X128410002Y-36900003D03*
X128410001Y-36250003D03*
X128410001Y-35600002D03*
X128410001Y-34950003D03*
X128410001Y-34300003D03*
X128410002Y-33650003D03*
X128410001Y-33000003D03*
X128410001Y-32350003D03*
X128410001Y-31700002D03*
X128410002Y-31050003D03*
%TD*%
D29*
%TO.C,D42*%
X165857507Y-51284998D03*
X163757501Y-51285002D03*
%TD*%
D26*
%TO.C,R20*%
X169744002Y-104040493D03*
X169744002Y-102390497D03*
%TD*%
D33*
%TO.C,C43*%
X173850000Y-62199999D03*
X173850000Y-65150001D03*
%TD*%
D42*
%TO.C,RV2*%
X198884500Y-74299999D03*
D43*
X196344500Y-76839999D03*
X193804500Y-74299999D03*
%TD*%
D35*
%TO.C,C31*%
X154060001Y-90735003D03*
X155610001Y-90735003D03*
%TD*%
D44*
%TO.C,R34*%
X145575004Y-62200000D03*
X147225000Y-62200000D03*
%TD*%
D26*
%TO.C,R24*%
X171512335Y-104026495D03*
X171512335Y-102376497D03*
%TD*%
D13*
%TO.C,D10*%
X158433996Y-94827500D03*
X158433992Y-92727500D03*
%TD*%
D12*
%TO.C,D32*%
X156739005Y-99090494D03*
X156739005Y-101190494D03*
%TD*%
D45*
%TO.C,R9*%
X197412501Y-68160001D03*
X195762501Y-68160001D03*
%TD*%
D35*
%TO.C,C23*%
X175935000Y-80845004D03*
X177485000Y-80845004D03*
%TD*%
%TO.C,C21*%
X154290000Y-80900000D03*
X155840000Y-80900000D03*
%TD*%
D46*
%TO.C,J3*%
X176100000Y-67825000D03*
D47*
X176100000Y-70365000D03*
%TD*%
D45*
%TO.C,R10*%
X189937502Y-68134999D03*
X188287502Y-68134999D03*
%TD*%
D48*
%TO.C,C48*%
X149467017Y-59832983D03*
X151552983Y-57747017D03*
%TD*%
D15*
%TO.C,R46*%
X118630000Y-83900000D03*
X119825000Y-83900000D03*
%TD*%
D11*
%TO.C,R52*%
X116017500Y-38670000D03*
X114822500Y-38670000D03*
%TD*%
D26*
%TO.C,R18*%
X152877341Y-104007492D03*
X152877341Y-102357494D03*
%TD*%
D13*
%TO.C,D14*%
X149892999Y-94772503D03*
X149892995Y-92672503D03*
%TD*%
D11*
%TO.C,R30*%
X132072500Y-82925000D03*
X130877500Y-82925000D03*
%TD*%
D18*
%TO.C,R5*%
X183544502Y-103230000D03*
D19*
X183544500Y-98149999D03*
%TD*%
D29*
%TO.C,D1*%
X188117501Y-64480000D03*
X186017501Y-64480000D03*
%TD*%
D45*
%TO.C,R8*%
X193737501Y-68134999D03*
X192087501Y-68134999D03*
%TD*%
D12*
%TO.C,D34*%
X173514003Y-99065491D03*
X173514007Y-101165493D03*
%TD*%
D27*
%TO.C,U3*%
X185595000Y-41910000D03*
X185595000Y-43180000D03*
X185595000Y-44450000D03*
X185595000Y-45720000D03*
X185595000Y-46990000D03*
X185595000Y-48260000D03*
X185595000Y-49530000D03*
X190545000Y-49530000D03*
X190545000Y-48260000D03*
X190545000Y-46990000D03*
X190545000Y-45720000D03*
X190545000Y-44450000D03*
X190545000Y-43180000D03*
X190545000Y-41910000D03*
%TD*%
D22*
%TO.C,C30*%
X151080000Y-80790000D03*
X149530000Y-80790000D03*
%TD*%
D15*
%TO.C,R49*%
X115322500Y-82500000D03*
X116517500Y-82500000D03*
%TD*%
D49*
%TO.C,R1*%
X143382502Y-34145001D03*
X143382500Y-35794999D03*
%TD*%
D35*
%TO.C,C14*%
X162978669Y-80815002D03*
X164528669Y-80815002D03*
%TD*%
D26*
%TO.C,R17*%
X145310671Y-104107992D03*
X145310671Y-102457994D03*
%TD*%
D21*
%TO.C,C5*%
X166800000Y-30250000D03*
X166800000Y-28700000D03*
%TD*%
D14*
%TO.C,C4*%
X158979999Y-53090000D03*
X158979999Y-54640000D03*
%TD*%
D13*
%TO.C,D11*%
X160530002Y-94830000D03*
X160529998Y-92730000D03*
%TD*%
D21*
%TO.C,C1*%
X143357499Y-31220000D03*
X143357499Y-29670000D03*
%TD*%
D25*
%TO.C,D3*%
X193712500Y-66460000D03*
X195812500Y-66460000D03*
%TD*%
D15*
%TO.C,R50*%
X115322500Y-83500000D03*
X116517500Y-83500000D03*
%TD*%
D27*
%TO.C,U1*%
X180900000Y-31140000D03*
X180900000Y-32410000D03*
X180900000Y-33680000D03*
X180900000Y-34950000D03*
X180900000Y-36220000D03*
X180900000Y-37490000D03*
X180900000Y-38760000D03*
X185850000Y-38760000D03*
X185850000Y-37490000D03*
X185850000Y-36220000D03*
X185850000Y-34950000D03*
X185850000Y-33680000D03*
X185850000Y-32410000D03*
X185850000Y-31140000D03*
%TD*%
D42*
%TO.C,RV4*%
X198944500Y-81954999D03*
D43*
X196404500Y-84494999D03*
X193864500Y-81954999D03*
%TD*%
D13*
%TO.C,D19*%
X142080004Y-94800000D03*
X142080000Y-92700000D03*
%TD*%
D10*
%TO.C,U6*%
X123280000Y-60300000D03*
X123280000Y-60949999D03*
X123279999Y-61599998D03*
X123279999Y-62249998D03*
X123280000Y-62899999D03*
X123280000Y-63549999D03*
X123280000Y-64199999D03*
X123280000Y-64849999D03*
X123280000Y-65499999D03*
X123280000Y-66149999D03*
X129005000Y-66149998D03*
X129005000Y-65499999D03*
X129005001Y-64850000D03*
X129005001Y-64200000D03*
X129005000Y-63549999D03*
X129005000Y-62899999D03*
X129005000Y-62249999D03*
X129005000Y-61599999D03*
X129005000Y-60949999D03*
X129005000Y-60299999D03*
%TD*%
D14*
%TO.C,C37*%
X181210000Y-61950000D03*
X181210000Y-63500000D03*
%TD*%
D23*
%TO.C,Q2*%
X197024499Y-93140001D03*
D24*
X195754499Y-93140000D03*
X194484499Y-93140001D03*
%TD*%
D14*
%TO.C,C15*%
X174710000Y-41135000D03*
X174710000Y-42685000D03*
%TD*%
%TO.C,C40*%
X144800000Y-108425000D03*
X144800000Y-109975000D03*
%TD*%
D11*
%TO.C,R65*%
X116017500Y-50700000D03*
X114822500Y-50700000D03*
%TD*%
D21*
%TO.C,C32*%
X171020000Y-80200000D03*
X171020000Y-78650000D03*
%TD*%
D26*
%TO.C,R31*%
X134925000Y-65724996D03*
X134925000Y-64075000D03*
%TD*%
D15*
%TO.C,R36*%
X118630000Y-82925000D03*
X119825000Y-82925000D03*
%TD*%
D13*
%TO.C,D7*%
X166670000Y-94850000D03*
X166669996Y-92750000D03*
%TD*%
D18*
%TO.C,R3*%
X195174501Y-96919997D03*
D19*
X190094500Y-96919999D03*
%TD*%
D34*
%TO.C,C44*%
X162604999Y-66950000D03*
X165555001Y-66950000D03*
%TD*%
D50*
%TO.C,U24*%
X122015001Y-48370002D03*
X122015000Y-49640001D03*
X122015001Y-50910002D03*
X122015002Y-52180001D03*
X122015000Y-53450001D03*
X122015000Y-54720001D03*
X122015001Y-55990002D03*
X122015000Y-57260001D03*
X128515001Y-57260000D03*
X128515002Y-55990001D03*
X128515001Y-54720000D03*
X128515000Y-53450001D03*
X128515002Y-52180001D03*
X128515002Y-50910001D03*
X128515001Y-49640000D03*
X128515002Y-48370001D03*
%TD*%
D37*
%TO.C,U9*%
X181864999Y-58495000D03*
X183134999Y-58495000D03*
X184404999Y-58495000D03*
X185674999Y-58495000D03*
X186944999Y-58495000D03*
X188214999Y-58495000D03*
X189484999Y-58495000D03*
X189484999Y-53545000D03*
X188214999Y-53545000D03*
X186944999Y-53545000D03*
X185674999Y-53545000D03*
X184404999Y-53545000D03*
X183134999Y-53545000D03*
X181864999Y-53545000D03*
%TD*%
D29*
%TO.C,D37*%
X175550007Y-51284995D03*
X173450001Y-51284999D03*
%TD*%
D11*
%TO.C,R54*%
X121125000Y-41575000D03*
X119930000Y-41575000D03*
%TD*%
D12*
%TO.C,D35*%
X151014004Y-99065493D03*
X151014004Y-101165493D03*
%TD*%
D51*
%TO.C,U30*%
X136125003Y-115730000D03*
X136775004Y-115730000D03*
X137425003Y-115730000D03*
X138075002Y-115730001D03*
X138725002Y-115730001D03*
X139375003Y-115730000D03*
X140025003Y-115730000D03*
X140675003Y-115730000D03*
X141325003Y-115730000D03*
X141975003Y-115730000D03*
X142625003Y-115730000D03*
X143275003Y-115730000D03*
X143275003Y-110005000D03*
X142625002Y-110005000D03*
X141975003Y-110005000D03*
X141325004Y-110004999D03*
X140675004Y-110004999D03*
X140025003Y-110005000D03*
X139375003Y-110005000D03*
X138725003Y-110005000D03*
X138075003Y-110005000D03*
X137425003Y-110005000D03*
X136775003Y-110005000D03*
X136125003Y-110005000D03*
%TD*%
D38*
%TO.C,H4*%
X200900000Y-118700000D03*
%TD*%
D12*
%TO.C,D29*%
X163935002Y-99035998D03*
X163935002Y-101135998D03*
%TD*%
D13*
%TO.C,D18*%
X144040004Y-94800000D03*
X144040000Y-92700000D03*
%TD*%
D50*
%TO.C,U23*%
X122077501Y-69077503D03*
X122077500Y-70347502D03*
X122077501Y-71617503D03*
X122077502Y-72887502D03*
X122077500Y-74157502D03*
X122077500Y-75427502D03*
X122077501Y-76697503D03*
X122077500Y-77967502D03*
X128577501Y-77967501D03*
X128577502Y-76697502D03*
X128577501Y-75427501D03*
X128577500Y-74157502D03*
X128577502Y-72887502D03*
X128577502Y-71617502D03*
X128577501Y-70347501D03*
X128577502Y-69077502D03*
%TD*%
D35*
%TO.C,C19*%
X199575000Y-39850000D03*
X201125000Y-39850000D03*
%TD*%
D38*
%TO.C,H2*%
X112200000Y-118700000D03*
%TD*%
D11*
%TO.C,R60*%
X116017500Y-43520000D03*
X114822500Y-43520000D03*
%TD*%
%TO.C,R42*%
X132072500Y-86700000D03*
X130877500Y-86700000D03*
%TD*%
D18*
%TO.C,R14*%
X199544500Y-96789997D03*
D19*
X199544501Y-101869999D03*
%TD*%
D12*
%TO.C,D27*%
X147214005Y-99065494D03*
X147214005Y-101165494D03*
%TD*%
D32*
%TO.C,C47*%
X177830000Y-95655002D03*
X177830000Y-92705000D03*
%TD*%
D26*
%TO.C,R22*%
X154815659Y-104015493D03*
X154815659Y-102365495D03*
%TD*%
D11*
%TO.C,R68*%
X116017500Y-59310000D03*
X114822500Y-59310000D03*
%TD*%
D42*
%TO.C,RV1*%
X191475000Y-82000000D03*
D43*
X188935000Y-84540000D03*
X186395000Y-82000000D03*
%TD*%
D26*
%TO.C,R16*%
X167747335Y-104052991D03*
X167747335Y-102402993D03*
%TD*%
D15*
%TO.C,R47*%
X118630000Y-81925000D03*
X119825000Y-81925000D03*
%TD*%
D38*
%TO.C,H1*%
X112200000Y-28800000D03*
%TD*%
D27*
%TO.C,U25*%
X137368264Y-69117071D03*
X137368264Y-70387071D03*
X137368264Y-71657071D03*
X137368264Y-72927071D03*
X137368264Y-74197071D03*
X137368264Y-75467071D03*
X137368264Y-76737071D03*
X142318264Y-76737071D03*
X142318264Y-75467071D03*
X142318264Y-74197071D03*
X142318264Y-72927071D03*
X142318264Y-71657071D03*
X142318264Y-70387071D03*
X142318264Y-69117071D03*
%TD*%
%TO.C,U2*%
X190390000Y-31010000D03*
X190390000Y-32280000D03*
X190390000Y-33550000D03*
X190390000Y-34820000D03*
X190390000Y-36090000D03*
X190390000Y-37360000D03*
X190390000Y-38630000D03*
X195340000Y-38630000D03*
X195340000Y-37360000D03*
X195340000Y-36090000D03*
X195340000Y-34820000D03*
X195340000Y-33550000D03*
X195340000Y-32280000D03*
X195340000Y-31010000D03*
%TD*%
D13*
%TO.C,D9*%
X168696663Y-94860002D03*
X168696659Y-92760002D03*
%TD*%
D14*
%TO.C,C38*%
X134825000Y-109730002D03*
X134825000Y-111280002D03*
%TD*%
D26*
%TO.C,R19*%
X162029999Y-104035995D03*
X162029999Y-102385999D03*
%TD*%
D13*
%TO.C,D13*%
X162580002Y-94860000D03*
X162579998Y-92760000D03*
%TD*%
%TO.C,D12*%
X164740002Y-94840000D03*
X164739998Y-92740000D03*
%TD*%
D18*
%TO.C,R4*%
X185744500Y-101899998D03*
D19*
X185744500Y-96819999D03*
%TD*%
D22*
%TO.C,C6*%
X185775000Y-29600000D03*
X184225000Y-29600000D03*
%TD*%
D21*
%TO.C,C41*%
X154200000Y-39940000D03*
X154200000Y-38390000D03*
%TD*%
D27*
%TO.C,U8*%
X176680000Y-41900000D03*
X176680000Y-43170000D03*
X176680000Y-44440000D03*
X176680000Y-45710000D03*
X176680000Y-46980000D03*
X176680000Y-48250000D03*
X176680000Y-49520000D03*
X181630000Y-49520000D03*
X181630000Y-48250000D03*
X181630000Y-46980000D03*
X181630000Y-45710000D03*
X181630000Y-44440000D03*
X181630000Y-43170000D03*
X181630000Y-41900000D03*
%TD*%
D49*
%TO.C,R32*%
X134820000Y-40820004D03*
X134820000Y-42470000D03*
%TD*%
D13*
%TO.C,D39*%
X147960000Y-94800000D03*
X147960000Y-92700000D03*
%TD*%
D12*
%TO.C,D24*%
X152924006Y-99060995D03*
X152924006Y-101160995D03*
%TD*%
D11*
%TO.C,R41*%
X132115000Y-79720000D03*
X130920000Y-79720000D03*
%TD*%
%TO.C,R62*%
X116017500Y-45480000D03*
X114822500Y-45480000D03*
%TD*%
D12*
%TO.C,D33*%
X165864005Y-99040494D03*
X165864005Y-101140494D03*
%TD*%
D37*
%TO.C,U11*%
X171170000Y-58490000D03*
X172440000Y-58490000D03*
X173710000Y-58490000D03*
X174980000Y-58490000D03*
X176250000Y-58490000D03*
X177520000Y-58490000D03*
X178790000Y-58490000D03*
X178790000Y-53540000D03*
X177520000Y-53540000D03*
X176250000Y-53540000D03*
X174980000Y-53540000D03*
X173710000Y-53540000D03*
X172440000Y-53540000D03*
X171170000Y-53540000D03*
%TD*%
D12*
%TO.C,D6*%
X172400000Y-74910000D03*
X172400004Y-77010002D03*
%TD*%
D14*
%TO.C,C2*%
X143382501Y-37220000D03*
X143382501Y-38770000D03*
%TD*%
%TO.C,C39*%
X159825000Y-109200000D03*
X159825000Y-110750000D03*
%TD*%
D23*
%TO.C,Q4*%
X194434500Y-100779999D03*
D24*
X195704500Y-100780000D03*
X196974500Y-100779999D03*
%TD*%
D15*
%TO.C,R51*%
X115302500Y-84460000D03*
X116497500Y-84460000D03*
%TD*%
D13*
%TO.C,D15*%
X151803000Y-94792502D03*
X151802996Y-92692502D03*
%TD*%
%TO.C,D17*%
X155632001Y-94837501D03*
X155631997Y-92737501D03*
%TD*%
D11*
%TO.C,R58*%
X116017500Y-54540000D03*
X114822500Y-54540000D03*
%TD*%
D52*
%TO.C,RV3*%
X186434500Y-74189999D03*
D43*
X188974500Y-71649999D03*
X191514500Y-74189999D03*
%TD*%
D11*
%TO.C,R56*%
X121007500Y-44940000D03*
X119812500Y-44940000D03*
%TD*%
D22*
%TO.C,C12*%
X162325000Y-39550000D03*
X160775000Y-39550000D03*
%TD*%
D29*
%TO.C,D38*%
X169100006Y-51284995D03*
X167000000Y-51284999D03*
%TD*%
D11*
%TO.C,R39*%
X132072500Y-83830000D03*
X130877500Y-83830000D03*
%TD*%
D53*
%TO.C,U18*%
X168625001Y-36725001D03*
X169895000Y-36725002D03*
X171165000Y-36725002D03*
X172435000Y-36725002D03*
X173705000Y-36725002D03*
X174975000Y-36725002D03*
X176245001Y-36725001D03*
X177515000Y-36725002D03*
X177514999Y-30225001D03*
X176245000Y-30225000D03*
X174975000Y-30225000D03*
X173705000Y-30225000D03*
X172435000Y-30225000D03*
X171165000Y-30225000D03*
X169894999Y-30225001D03*
X168625000Y-30225000D03*
%TD*%
D36*
%TO.C,U27*%
X168995001Y-79510000D03*
X168995001Y-78860001D03*
X168995002Y-78210002D03*
X168995002Y-77560002D03*
X168995001Y-76910001D03*
X168995001Y-76260001D03*
X168995001Y-75610001D03*
X168995001Y-74960001D03*
X168995001Y-74310001D03*
X168995001Y-73660001D03*
X163270001Y-73660002D03*
X163270001Y-74310001D03*
X163270000Y-74960000D03*
X163270000Y-75610000D03*
X163270001Y-76260001D03*
X163270001Y-76910001D03*
X163270001Y-77560001D03*
X163270001Y-78210001D03*
X163270001Y-78860001D03*
X163270001Y-79510001D03*
%TD*%
D54*
%TO.C,Y1*%
X139557502Y-32564996D03*
X139557502Y-37444996D03*
%TD*%
D18*
%TO.C,R12*%
X201654499Y-98169998D03*
D19*
X201654500Y-103250000D03*
%TD*%
D36*
%TO.C,U31*%
X151200000Y-79490000D03*
X151200000Y-78840001D03*
X151200001Y-78190002D03*
X151200001Y-77540002D03*
X151200000Y-76890001D03*
X151200000Y-76240001D03*
X151200000Y-75590001D03*
X151200000Y-74940001D03*
X151200000Y-74290001D03*
X151200000Y-73640001D03*
X145475000Y-73640002D03*
X145475000Y-74290001D03*
X145474999Y-74940000D03*
X145474999Y-75590000D03*
X145475000Y-76240001D03*
X145475000Y-76890001D03*
X145475000Y-77540001D03*
X145475000Y-78190001D03*
X145475000Y-78840001D03*
X145475000Y-79490001D03*
%TD*%
D21*
%TO.C,C34*%
X143190000Y-42490000D03*
X143190000Y-40940000D03*
%TD*%
D13*
%TO.C,D8*%
X170640004Y-94860000D03*
X170640000Y-92760000D03*
%TD*%
D32*
%TO.C,C50*%
X173000000Y-70775002D03*
X173000000Y-67825000D03*
%TD*%
D46*
%TO.C,J1*%
X109880000Y-38910000D03*
D47*
X112420000Y-38910000D03*
X109880000Y-41450000D03*
X112420000Y-41450000D03*
X109880000Y-43989999D03*
X112420000Y-43990000D03*
X109880000Y-46530000D03*
X112420000Y-46530000D03*
X109880000Y-49070000D03*
X112420000Y-49070000D03*
X109880000Y-51610000D03*
X112420000Y-51610000D03*
X109880000Y-54150000D03*
X112420000Y-54150000D03*
X109880000Y-56690001D03*
X112420000Y-56690000D03*
X109880000Y-59230000D03*
X112420000Y-59230000D03*
X109880000Y-61770000D03*
X112420000Y-61770000D03*
X109880000Y-64310000D03*
X112420000Y-64310000D03*
X109880000Y-66849999D03*
X112420000Y-66850000D03*
X109880000Y-69390000D03*
X112420000Y-69390000D03*
X109880000Y-71930000D03*
X112420000Y-71930000D03*
X109880000Y-74470000D03*
X112420000Y-74470000D03*
X109880000Y-77009999D03*
X112420000Y-77010000D03*
X109880000Y-79550001D03*
X112420000Y-79550000D03*
X109880000Y-82090000D03*
X112420000Y-82090000D03*
X109880000Y-84630000D03*
X112420000Y-84630000D03*
X109880000Y-87170000D03*
X112420000Y-87170000D03*
%TD*%
D11*
%TO.C,R64*%
X116017500Y-47570000D03*
X114822500Y-47570000D03*
%TD*%
D14*
%TO.C,C3*%
X165600000Y-62300000D03*
X165600000Y-63850000D03*
%TD*%
D12*
%TO.C,D31*%
X149107339Y-99063494D03*
X149107339Y-101163494D03*
%TD*%
D11*
%TO.C,R43*%
X132072500Y-84800000D03*
X130877500Y-84800000D03*
%TD*%
D15*
%TO.C,R37*%
X118630000Y-80975000D03*
X119825000Y-80975000D03*
%TD*%
D12*
%TO.C,D22*%
X167764005Y-99040494D03*
X167764005Y-101140494D03*
%TD*%
D22*
%TO.C,C26*%
X129180000Y-46720000D03*
X127630000Y-46720000D03*
%TD*%
D27*
%TO.C,U16*%
X157400000Y-41905002D03*
X157400000Y-43175002D03*
X157400000Y-44445002D03*
X157400000Y-45715002D03*
X157400000Y-46985002D03*
X157400000Y-48255002D03*
X157400000Y-49525002D03*
X162350000Y-49525002D03*
X162350000Y-48255002D03*
X162350000Y-46985002D03*
X162350000Y-45715002D03*
X162350000Y-44445002D03*
X162350000Y-43175002D03*
X162350000Y-41905002D03*
%TD*%
D15*
%TO.C,R35*%
X118630000Y-84850000D03*
X119825000Y-84850000D03*
%TD*%
D32*
%TO.C,C51*%
X179050000Y-70790002D03*
X179050000Y-67840000D03*
%TD*%
D27*
%TO.C,U33*%
X163342500Y-82364999D03*
X163342500Y-83634999D03*
X163342500Y-84904999D03*
X163342500Y-86174999D03*
X163342500Y-87444999D03*
X163342500Y-88714999D03*
X163342500Y-89984999D03*
X168292500Y-89984999D03*
X168292500Y-88714999D03*
X168292500Y-87444999D03*
X168292500Y-86174999D03*
X168292500Y-84904999D03*
X168292500Y-83634999D03*
X168292500Y-82364999D03*
%TD*%
D55*
%TO.C,U28*%
X170059999Y-69529999D03*
D56*
X170059999Y-66989999D03*
X170060000Y-64450000D03*
%TD*%
D36*
%TO.C,U29*%
X159985000Y-79579999D03*
X159985000Y-78930000D03*
X159985001Y-78280001D03*
X159985001Y-77630001D03*
X159985000Y-76980000D03*
X159985000Y-76330000D03*
X159985000Y-75680000D03*
X159985000Y-75030000D03*
X159985000Y-74380000D03*
X159985000Y-73730000D03*
X154260000Y-73730001D03*
X154260000Y-74380000D03*
X154259999Y-75029999D03*
X154259999Y-75679999D03*
X154260000Y-76330000D03*
X154260000Y-76980000D03*
X154260000Y-77630000D03*
X154260000Y-78280000D03*
X154260000Y-78930000D03*
X154260000Y-79580000D03*
%TD*%
D22*
%TO.C,C7*%
X195345000Y-29495000D03*
X193795000Y-29495000D03*
%TD*%
D35*
%TO.C,C13*%
X131385000Y-35100000D03*
X132935000Y-35100000D03*
%TD*%
D27*
%TO.C,U32*%
X170792500Y-82390001D03*
X170792500Y-83660001D03*
X170792500Y-84930001D03*
X170792500Y-86200001D03*
X170792500Y-87470001D03*
X170792500Y-88740001D03*
X170792500Y-90010001D03*
X175742500Y-90010001D03*
X175742500Y-88740001D03*
X175742500Y-87470001D03*
X175742500Y-86200001D03*
X175742500Y-84930001D03*
X175742500Y-83660001D03*
X175742500Y-82390001D03*
%TD*%
D11*
%TO.C,R63*%
X116017500Y-44500000D03*
X114822500Y-44500000D03*
%TD*%
D25*
%TO.C,D5*%
X190012501Y-66435000D03*
X192112501Y-66435000D03*
%TD*%
M02*
