%TF.GenerationSoftware,KiCad,Pcbnew,9.0.0*%
%TF.CreationDate,2025-04-23T17:39:51-07:00*%
%TF.ProjectId,ntscv2,6e747363-7632-42e6-9b69-6361645f7063,rev?*%
%TF.SameCoordinates,Original*%
%TF.FileFunction,Soldermask,Bot*%
%TF.FilePolarity,Negative*%
%FSLAX46Y46*%
G04 Gerber Fmt 4.6, Leading zero omitted, Abs format (unit mm)*
G04 Created by KiCad (PCBNEW 9.0.0) date 2025-04-23 17:39:51*
%MOMM*%
%LPD*%
G01*
G04 APERTURE LIST*
G04 Aperture macros list*
%AMRoundRect*
0 Rectangle with rounded corners*
0 $1 Rounding radius*
0 $2 $3 $4 $5 $6 $7 $8 $9 X,Y pos of 4 corners*
0 Add a 4 corners polygon primitive as box body*
4,1,4,$2,$3,$4,$5,$6,$7,$8,$9,$2,$3,0*
0 Add four circle primitives for the rounded corners*
1,1,$1+$1,$2,$3*
1,1,$1+$1,$4,$5*
1,1,$1+$1,$6,$7*
1,1,$1+$1,$8,$9*
0 Add four rect primitives between the rounded corners*
20,1,$1+$1,$2,$3,$4,$5,0*
20,1,$1+$1,$4,$5,$6,$7,0*
20,1,$1+$1,$6,$7,$8,$9,0*
20,1,$1+$1,$8,$9,$2,$3,0*%
G04 Aperture macros list end*
%ADD10RoundRect,0.250000X-0.550000X-0.550000X0.550000X-0.550000X0.550000X0.550000X-0.550000X0.550000X0*%
%ADD11C,1.600000*%
%ADD12C,1.400000*%
%ADD13O,1.400000X1.400000*%
%ADD14R,1.050000X1.500000*%
%ADD15O,1.050000X1.500000*%
%ADD16R,3.500000X3.500000*%
%ADD17C,4.000000*%
%ADD18C,4.700000*%
%ADD19R,1.222000X1.222000*%
%ADD20C,1.222000*%
%ADD21R,1.700000X1.700000*%
%ADD22O,1.700000X1.700000*%
%ADD23C,1.500000*%
%ADD24R,2.000000X1.905000*%
%ADD25O,2.000000X1.905000*%
%ADD26C,0.800000*%
G04 APERTURE END LIST*
D10*
%TO.C,U17*%
X117785001Y-38212498D03*
D11*
X117785001Y-40752498D03*
X117785001Y-43292498D03*
X117785001Y-45832498D03*
X117785001Y-48372498D03*
X117785001Y-50912498D03*
X117785001Y-53452498D03*
X117785001Y-55992498D03*
X117785001Y-58532498D03*
X117785001Y-61072498D03*
X117785001Y-63612498D03*
X117785001Y-66152498D03*
X117785001Y-68692498D03*
X117785001Y-71232498D03*
X117785001Y-73772498D03*
X117785001Y-76312498D03*
X133025001Y-76312498D03*
X133025001Y-73772498D03*
X133025001Y-71232498D03*
X133025001Y-68692498D03*
X133025001Y-66152498D03*
X133025001Y-63612498D03*
X133025001Y-61072498D03*
X133025001Y-58532498D03*
X133025001Y-55992498D03*
X133025001Y-53452498D03*
X133025001Y-50912498D03*
X133025001Y-48372498D03*
X133025001Y-45832498D03*
X133025001Y-43292498D03*
X133025001Y-40752498D03*
X133025001Y-38212498D03*
%TD*%
D12*
%TO.C,R7*%
X193994500Y-90069999D03*
D13*
X199074502Y-90069997D03*
%TD*%
D14*
%TO.C,Q1*%
X190794499Y-93140000D03*
D15*
X189524499Y-93139999D03*
X188254499Y-93140000D03*
%TD*%
D12*
%TO.C,R2*%
X191324499Y-90069999D03*
D13*
X186244500Y-90069999D03*
%TD*%
D16*
%TO.C,J2*%
X186475000Y-113525000D03*
D17*
X191500000Y-118550000D03*
X191500000Y-108500000D03*
X181450000Y-118550000D03*
X181450000Y-108500000D03*
%TD*%
D12*
%TO.C,R6*%
X183594500Y-94779999D03*
D13*
X183594498Y-89699998D03*
%TD*%
D14*
%TO.C,Q3*%
X188304500Y-100769999D03*
D15*
X189574500Y-100770000D03*
X190844500Y-100769999D03*
%TD*%
D12*
%TO.C,R11*%
X201644500Y-89729999D03*
D13*
X201644502Y-94810000D03*
%TD*%
D18*
%TO.C,H3*%
X200900000Y-28800000D03*
%TD*%
D12*
%TO.C,R13*%
X193954500Y-103870000D03*
D13*
X199034501Y-103869998D03*
%TD*%
D19*
%TO.C,RV2*%
X198884500Y-74299999D03*
D20*
X196344500Y-76839999D03*
X193804500Y-74299999D03*
%TD*%
D21*
%TO.C,J3*%
X176100000Y-67825000D03*
D22*
X176100000Y-70365000D03*
%TD*%
D12*
%TO.C,R5*%
X183544502Y-103230000D03*
D13*
X183544500Y-98149999D03*
%TD*%
D19*
%TO.C,RV4*%
X198944500Y-81954999D03*
D20*
X196404500Y-84494999D03*
X193864500Y-81954999D03*
%TD*%
D14*
%TO.C,Q2*%
X197024499Y-93140001D03*
D15*
X195754499Y-93140000D03*
X194484499Y-93140001D03*
%TD*%
D12*
%TO.C,R3*%
X195174501Y-96919997D03*
D13*
X190094500Y-96919999D03*
%TD*%
D18*
%TO.C,H4*%
X200900000Y-118700000D03*
%TD*%
%TO.C,H2*%
X112200000Y-118700000D03*
%TD*%
D12*
%TO.C,R14*%
X199544500Y-96789997D03*
D13*
X199544501Y-101869999D03*
%TD*%
D19*
%TO.C,RV1*%
X191475000Y-82000000D03*
D20*
X188935000Y-84540000D03*
X186395000Y-82000000D03*
%TD*%
D18*
%TO.C,H1*%
X112200000Y-28800000D03*
%TD*%
D12*
%TO.C,R4*%
X185744500Y-101899998D03*
D13*
X185744500Y-96819999D03*
%TD*%
D14*
%TO.C,Q4*%
X194434500Y-100779999D03*
D15*
X195704500Y-100780000D03*
X196974500Y-100779999D03*
%TD*%
D19*
%TO.C,RV3*%
X186434500Y-74189999D03*
D20*
X188974500Y-71649999D03*
X191514500Y-74189999D03*
%TD*%
D23*
%TO.C,Y1*%
X139557502Y-32564996D03*
X139557502Y-37444996D03*
%TD*%
D12*
%TO.C,R12*%
X201654499Y-98169998D03*
D13*
X201654500Y-103250000D03*
%TD*%
D21*
%TO.C,J1*%
X109880000Y-38910000D03*
D22*
X112420000Y-38910000D03*
X109880000Y-41450000D03*
X112420000Y-41450000D03*
X109880000Y-43989999D03*
X112420000Y-43990000D03*
X109880000Y-46530000D03*
X112420000Y-46530000D03*
X109880000Y-49070000D03*
X112420000Y-49070000D03*
X109880000Y-51610000D03*
X112420000Y-51610000D03*
X109880000Y-54150000D03*
X112420000Y-54150000D03*
X109880000Y-56690001D03*
X112420000Y-56690000D03*
X109880000Y-59230000D03*
X112420000Y-59230000D03*
X109880000Y-61770000D03*
X112420000Y-61770000D03*
X109880000Y-64310000D03*
X112420000Y-64310000D03*
X109880000Y-66849999D03*
X112420000Y-66850000D03*
X109880000Y-69390000D03*
X112420000Y-69390000D03*
X109880000Y-71930000D03*
X112420000Y-71930000D03*
X109880000Y-74470000D03*
X112420000Y-74470000D03*
X109880000Y-77009999D03*
X112420000Y-77010000D03*
X109880000Y-79550001D03*
X112420000Y-79550000D03*
X109880000Y-82090000D03*
X112420000Y-82090000D03*
X109880000Y-84630000D03*
X112420000Y-84630000D03*
X109880000Y-87170000D03*
X112420000Y-87170000D03*
%TD*%
D24*
%TO.C,U28*%
X170059999Y-69529999D03*
D25*
X170059999Y-66989999D03*
X170060000Y-64450000D03*
%TD*%
D26*
%TO.C,TP81*%
X177100000Y-54060000D03*
%TD*%
%TO.C,TP79*%
X189290000Y-63470000D03*
%TD*%
%TO.C,TP86*%
X199040000Y-48360000D03*
%TD*%
%TO.C,TP5*%
X192760000Y-65850000D03*
%TD*%
%TO.C,TP83*%
X180890000Y-48030000D03*
%TD*%
%TO.C,TP7*%
X196314999Y-54089999D03*
%TD*%
%TO.C,TP80*%
X186960000Y-59760000D03*
%TD*%
%TO.C,TP85*%
X190110000Y-48360000D03*
%TD*%
%TO.C,TP87*%
X172210000Y-46970000D03*
%TD*%
%TO.C,TP6*%
X198437501Y-66130000D03*
%TD*%
%TO.C,TP82*%
X177420000Y-46850000D03*
%TD*%
%TO.C,TP88*%
X172180000Y-44440000D03*
%TD*%
%TO.C,TP84*%
X195020000Y-33630000D03*
%TD*%
M02*
