%TF.GenerationSoftware,KiCad,Pcbnew,9.0.0*%
%TF.CreationDate,2025-04-23T17:40:39-07:00*%
%TF.ProjectId,ntscv2,6e747363-7632-42e6-9b69-6361645f7063,rev?*%
%TF.SameCoordinates,Original*%
%TF.FileFunction,Drillmap*%
%TF.FilePolarity,Positive*%
%FSLAX45Y45*%
G04 Gerber Fmt 4.5, Leading zero omitted, Abs format (unit mm)*
G04 Created by KiCad (PCBNEW 9.0.0) date 2025-04-23 17:40:39*
%MOMM*%
%LPD*%
G01*
G04 APERTURE LIST*
%ADD10C,0.050000*%
%ADD11C,0.200000*%
G04 APERTURE END LIST*
D10*
X10720750Y-2380000D02*
X20590000Y-2380000D01*
X20590000Y-12370000D01*
X10720750Y-12370000D01*
X10720750Y-2380000D01*
D11*
X10979027Y-12683984D02*
X10979027Y-12483984D01*
X10979027Y-12483984D02*
X11026646Y-12483984D01*
X11026646Y-12483984D02*
X11055218Y-12493508D01*
X11055218Y-12493508D02*
X11074265Y-12512555D01*
X11074265Y-12512555D02*
X11083789Y-12531603D01*
X11083789Y-12531603D02*
X11093313Y-12569698D01*
X11093313Y-12569698D02*
X11093313Y-12598269D01*
X11093313Y-12598269D02*
X11083789Y-12636365D01*
X11083789Y-12636365D02*
X11074265Y-12655412D01*
X11074265Y-12655412D02*
X11055218Y-12674460D01*
X11055218Y-12674460D02*
X11026646Y-12683984D01*
X11026646Y-12683984D02*
X10979027Y-12683984D01*
X11179027Y-12683984D02*
X11179027Y-12550650D01*
X11179027Y-12588746D02*
X11188551Y-12569698D01*
X11188551Y-12569698D02*
X11198075Y-12560174D01*
X11198075Y-12560174D02*
X11217122Y-12550650D01*
X11217122Y-12550650D02*
X11236170Y-12550650D01*
X11302836Y-12683984D02*
X11302836Y-12550650D01*
X11302836Y-12483984D02*
X11293313Y-12493508D01*
X11293313Y-12493508D02*
X11302836Y-12503031D01*
X11302836Y-12503031D02*
X11312360Y-12493508D01*
X11312360Y-12493508D02*
X11302836Y-12483984D01*
X11302836Y-12483984D02*
X11302836Y-12503031D01*
X11426646Y-12683984D02*
X11407598Y-12674460D01*
X11407598Y-12674460D02*
X11398075Y-12655412D01*
X11398075Y-12655412D02*
X11398075Y-12483984D01*
X11531408Y-12683984D02*
X11512360Y-12674460D01*
X11512360Y-12674460D02*
X11502836Y-12655412D01*
X11502836Y-12655412D02*
X11502836Y-12483984D01*
X11759979Y-12683984D02*
X11759979Y-12483984D01*
X11759979Y-12483984D02*
X11826646Y-12626841D01*
X11826646Y-12626841D02*
X11893313Y-12483984D01*
X11893313Y-12483984D02*
X11893313Y-12683984D01*
X12074265Y-12683984D02*
X12074265Y-12579222D01*
X12074265Y-12579222D02*
X12064741Y-12560174D01*
X12064741Y-12560174D02*
X12045694Y-12550650D01*
X12045694Y-12550650D02*
X12007598Y-12550650D01*
X12007598Y-12550650D02*
X11988551Y-12560174D01*
X12074265Y-12674460D02*
X12055217Y-12683984D01*
X12055217Y-12683984D02*
X12007598Y-12683984D01*
X12007598Y-12683984D02*
X11988551Y-12674460D01*
X11988551Y-12674460D02*
X11979027Y-12655412D01*
X11979027Y-12655412D02*
X11979027Y-12636365D01*
X11979027Y-12636365D02*
X11988551Y-12617317D01*
X11988551Y-12617317D02*
X12007598Y-12607793D01*
X12007598Y-12607793D02*
X12055217Y-12607793D01*
X12055217Y-12607793D02*
X12074265Y-12598269D01*
X12169503Y-12550650D02*
X12169503Y-12750650D01*
X12169503Y-12560174D02*
X12188551Y-12550650D01*
X12188551Y-12550650D02*
X12226646Y-12550650D01*
X12226646Y-12550650D02*
X12245694Y-12560174D01*
X12245694Y-12560174D02*
X12255217Y-12569698D01*
X12255217Y-12569698D02*
X12264741Y-12588746D01*
X12264741Y-12588746D02*
X12264741Y-12645888D01*
X12264741Y-12645888D02*
X12255217Y-12664936D01*
X12255217Y-12664936D02*
X12245694Y-12674460D01*
X12245694Y-12674460D02*
X12226646Y-12683984D01*
X12226646Y-12683984D02*
X12188551Y-12683984D01*
X12188551Y-12683984D02*
X12169503Y-12674460D01*
X12350456Y-12664936D02*
X12359979Y-12674460D01*
X12359979Y-12674460D02*
X12350456Y-12683984D01*
X12350456Y-12683984D02*
X12340932Y-12674460D01*
X12340932Y-12674460D02*
X12350456Y-12664936D01*
X12350456Y-12664936D02*
X12350456Y-12683984D01*
X12350456Y-12560174D02*
X12359979Y-12569698D01*
X12359979Y-12569698D02*
X12350456Y-12579222D01*
X12350456Y-12579222D02*
X12340932Y-12569698D01*
X12340932Y-12569698D02*
X12350456Y-12560174D01*
X12350456Y-12560174D02*
X12350456Y-12579222D01*
M02*
