M48
; DRILL file {KiCad 9.0.0} date 2025-04-23T17:40:39-0700
; FORMAT={-:-/ absolute / metric / decimal}
; #@! TF.CreationDate,2025-04-23T17:40:39-07:00
; #@! TF.GenerationSoftware,Kicad,Pcbnew,9.0.0
; #@! TF.FileFunction,Plated,1,4,PTH
FMAT,2
METRIC
; #@! TA.AperFunction,Plated,PTH,ViaDrill
T1C0.300
; #@! TA.AperFunction,Plated,PTH,ComponentDrill
T2C0.700
; #@! TA.AperFunction,Plated,PTH,ComponentDrill
T3C0.714
; #@! TA.AperFunction,Plated,PTH,ComponentDrill
T4C0.750
; #@! TA.AperFunction,Plated,PTH,ComponentDrill
T5C0.800
; #@! TA.AperFunction,Plated,PTH,ComponentDrill
T6C1.000
; #@! TA.AperFunction,Plated,PTH,ComponentDrill
T7C1.100
; #@! TA.AperFunction,Plated,PTH,ComponentDrill
T8C1.500
; #@! TA.AperFunction,Plated,PTH,ComponentDrill
T9C2.700
%
G90
G05
T1
X109.98Y-102.98
X110.05Y-93.51
X114.175Y-50.4
X114.357Y-48.839
X114.82Y-80.08
X115.05Y-90.46
X115.26Y-61.21
X115.29Y-74.93
X116.017Y-38.67
X116.017Y-42.125
X116.017Y-43.52
X116.017Y-44.5
X116.017Y-45.48
X116.017Y-47.57
X116.017Y-50.7
X116.017Y-51.66
X116.017Y-53.48
X116.017Y-54.54
X116.017Y-56.56
X116.017Y-58.13
X116.017Y-59.31
X116.517Y-82.5
X116.97Y-86.72
X117.725Y-83.125
X118.63Y-80.025
X118.63Y-81.925
X118.63Y-83.9
X118.63Y-85.8
X119.55Y-48.875
X119.62Y-70.45
X119.812Y-44.94
X119.953Y-42.85
X120.008Y-46.608
X120.19Y-29.4
X120.63Y-64.23
X121.975Y-61.175
X121.987Y-62.512
X122.025Y-63.362
X122.091Y-46.511
X122.12Y-104.72
X122.35Y-58.9
X122.7Y-37.925
X123.635Y-85.795
X123.65Y-55.97
X123.65Y-50.89
X123.65Y-53.43
X123.7Y-76.69
X123.7Y-77.96
X123.7Y-70.34
X123.7Y-71.61
X123.7Y-74.15
X123.74Y-69.15
X123.8Y-91.175
X123.825Y-40.875
X123.825Y-42.175
X123.825Y-44.775
X124.135Y-81.245
X124.135Y-82.545
X124.135Y-83.845
X124.135Y-85.145
X124.23Y-31.7
X124.34Y-60.31
X124.35Y-86.94
X124.4Y-64.25
X124.4Y-65.55
X124.5Y-58.96
X124.9Y-64.9
X124.93Y-66.3
X125.0Y-62.925
X125.01Y-35.66
X125.04Y-121.13
X125.225Y-41.825
X125.337Y-79.525
X125.39Y-56.32
X125.489Y-61.48
X125.527Y-54.641
X125.78Y-70.26
X126.02Y-77.96
X126.093Y-55.938
X126.12Y-72.8
X126.313Y-75.767
X126.34Y-58.93
X126.475Y-39.575
X126.5Y-45.125
X126.646Y-65.69
X126.736Y-67.529
X126.825Y-42.075
X126.825Y-43.375
X126.86Y-57.17
X126.9Y-55.98
X126.91Y-74.15
X126.91Y-70.34
X127.06Y-83.77
X127.06Y-85.07
X127.06Y-86.37
X127.06Y-81.17
X127.06Y-82.47
X127.066Y-75.455
X127.1Y-37.775
X127.12Y-36.94
X127.325Y-61.55
X127.325Y-62.85
X127.325Y-41.425
X127.325Y-42.725
X127.325Y-45.325
X127.63Y-46.72
X127.74Y-58.933
X127.768Y-64.298
X127.825Y-60.9
X127.825Y-62.2
X127.825Y-63.5
X127.83Y-66.09
X128.375Y-79.325
X129.25Y-90.95
X129.325Y-44.1
X130.09Y-73.16
X130.243Y-64.949
X130.25Y-63.464
X130.375Y-59.225
X130.675Y-60.2
X130.767Y-79.72
X130.88Y-83.83
X130.882Y-81.95
X131.0Y-43.725
X131.2Y-77.11
X131.775Y-64.113
X131.956Y-36.519
X132.072Y-80.975
X132.072Y-82.925
X132.072Y-84.8
X132.072Y-86.7
X132.51Y-99.16
X133.3Y-31.575
X133.6Y-79.36
X133.825Y-36.2
X134.06Y-85.12
X134.175Y-112.775
X134.908Y-65.676
X135.125Y-70.825
X135.15Y-53.75
X135.28Y-52.6
X135.425Y-34.225
X135.625Y-58.25
X135.69Y-97.48
X135.825Y-67.175
X135.87Y-49.7
X135.92Y-46.42
X136.0Y-104.81
X136.07Y-43.6
X136.165Y-114.625
X136.54Y-108.23
X136.59Y-111.43
X136.68Y-89.2
X136.815Y-114.125
X137.4Y-112.0
X137.465Y-114.625
X137.55Y-83.625
X137.65Y-60.81
X137.99Y-96.58
X138.075Y-111.15
X138.11Y-99.64
X138.115Y-114.125
X138.143Y-52.407
X138.143Y-57.607
X138.15Y-98.68
X138.18Y-62.185
X138.18Y-63.51
X138.205Y-64.785
X138.254Y-45.172
X138.254Y-47.772
X138.254Y-49.072
X138.43Y-65.9
X138.546Y-66.731
X138.55Y-97.18
X138.625Y-112.0
X138.715Y-70.4
X138.715Y-71.67
X138.715Y-72.94
X138.715Y-74.21
X138.715Y-75.48
X138.715Y-76.75
X138.754Y-45.822
X138.754Y-47.122
X138.754Y-48.422
X138.765Y-114.625
X138.787Y-97.944
X138.79Y-80.49
X139.048Y-58.5
X139.335Y-111.1
X139.37Y-91.14
X139.415Y-114.125
X139.6Y-108.18
X139.775Y-64.96
X139.985Y-111.6
X140.019Y-87.183
X140.035Y-88.61
X140.035Y-84.8
X140.065Y-114.625
X140.07Y-64.06
X140.385Y-72.266
X140.409Y-56.191
X140.444Y-48.56
X140.466Y-49.517
X140.635Y-111.1
X140.715Y-114.125
X140.822Y-62.778
X140.985Y-70.38
X140.985Y-72.92
X140.985Y-74.19
X140.985Y-76.73
X140.991Y-65.606
X141.025Y-52.35
X141.042Y-67.778
X141.204Y-45.072
X141.204Y-46.372
X141.285Y-111.6
X141.352Y-62.112
X141.365Y-114.625
X141.43Y-102.17
X141.643Y-52.957
X141.704Y-45.722
X141.704Y-47.022
X141.704Y-48.322
X141.704Y-49.622
X141.766Y-66.68
X141.88Y-64.11
X141.935Y-111.1
X142.015Y-114.125
X142.285Y-88.61
X142.285Y-89.88
X142.285Y-83.53
X142.285Y-86.07
X142.6Y-111.6
X142.62Y-98.63
X142.675Y-114.625
X143.11Y-39.78
X143.113Y-60.205
X143.325Y-114.125
X143.7Y-111.55
X143.875Y-62.875
X143.98Y-66.05
X144.088Y-28.965
X144.15Y-70.02
X144.29Y-44.13
X144.325Y-57.25
X144.47Y-53.43
X144.675Y-59.575
X144.675Y-116.425
X144.7Y-121.74
X144.86Y-48.84
X144.87Y-81.29
X144.9Y-80.38
X144.95Y-41.24
X145.4Y-105.46
X145.44Y-109.96
X145.83Y-68.16
X146.475Y-75.61
X146.56Y-78.9
X146.562Y-115.027
X146.683Y-39.005
X146.722Y-37.815
X146.722Y-35.275
X146.722Y-36.545
X146.875Y-73.64
X146.93Y-65.673
X147.05Y-53.75
X147.125Y-76.29
X147.275Y-77.2
X147.33Y-71.62
X147.51Y-83.555
X147.51Y-86.095
X147.51Y-88.635
X147.51Y-84.825
X147.51Y-87.365
X147.55Y-82.365
X147.735Y-108.817
X147.752Y-115.067
X147.9Y-62.15
X147.96Y-92.7
X148.125Y-74.575
X148.932Y-39.005
X148.972Y-34.005
X148.972Y-36.545
X148.972Y-37.815
X148.972Y-32.735
X149.022Y-115.067
X149.31Y-60.58
X149.371Y-89.944
X149.715Y-76.89
X149.76Y-87.365
X149.76Y-88.635
X149.76Y-83.555
X149.76Y-86.095
X149.78Y-63.37
X149.857Y-44.43
X149.857Y-46.97
X149.857Y-49.51
X149.893Y-92.673
X150.14Y-78.17
X150.14Y-75.57
X150.292Y-115.067
X150.35Y-72.95
X150.58Y-42.59
X150.75Y-56.91
X150.82Y-66.39
X151.13Y-64.7
X151.51Y-115.015
X151.803Y-92.693
X151.9Y-80.8
X152.07Y-30.045
X152.107Y-45.7
X152.832Y-115.067
X152.86Y-80.8
X152.98Y-58.91
X153.52Y-90.42
X153.72Y-92.698
X153.79Y-34.34
X153.95Y-53.56
X154.04Y-37.01
X154.102Y-115.067
X155.24Y-29.21
X155.3Y-73.73
X155.35Y-87.425
X155.372Y-115.067
X155.47Y-76.93
X155.51Y-88.78
X155.544Y-83.58
X155.632Y-92.738
X155.737Y-75.0
X155.87Y-86.75
X155.895Y-78.345
X156.02Y-82.85
X156.04Y-88.08
X156.09Y-84.185
X156.1Y-31.917
X156.15Y-35.185
X156.28Y-75.715
X156.398Y-74.312
X156.672Y-115.092
X157.04Y-34.36
X157.37Y-31.917
X157.55Y-38.35
X157.797Y-108.917
X157.862Y-115.132
X157.875Y-59.3
X157.955Y-39.904
X158.25Y-63.07
X158.3Y-74.95
X158.35Y-67.63
X158.35Y-90.73
X158.375Y-77.59
X158.375Y-78.89
X158.375Y-76.29
X158.39Y-87.44
X158.434Y-92.727
X158.48Y-101.19
X158.51Y-83.505
X158.64Y-31.917
X158.69Y-35.185
X158.756Y-44.505
X158.757Y-43.16
X158.757Y-45.7
X158.757Y-48.24
X158.757Y-49.51
X158.81Y-88.8
X158.875Y-75.64
X158.9Y-55.69
X159.01Y-82.855
X159.01Y-84.155
X159.075Y-73.115
X159.08Y-86.8
X159.525Y-116.475
X159.56Y-121.75
X159.67Y-91.68
X159.775Y-111.575
X159.88Y-39.48
X159.91Y-31.918
X159.955Y-59.5
X159.96Y-35.185
X160.0Y-47.0
X160.062Y-61.248
X160.275Y-96.65
X160.356Y-42.643
X160.375Y-108.65
X161.007Y-45.7
X161.007Y-48.24
X161.18Y-31.917
X161.23Y-35.185
X161.534Y-84.944
X161.657Y-108.917
X161.66Y-61.325
X161.677Y-115.328
X161.785Y-57.182
X161.785Y-54.932
X161.9Y-86.36
X161.92Y-66.01
X161.92Y-67.92
X162.0Y-96.675
X162.55Y-33.25
X162.867Y-115.367
X162.979Y-80.815
X163.055Y-54.932
X163.55Y-42.75
X163.56Y-61.325
X163.571Y-109.154
X163.7Y-96.675
X163.72Y-31.918
X163.758Y-51.285
X164.137Y-115.367
X164.325Y-57.182
X164.325Y-54.933
X164.365Y-74.98
X164.37Y-73.66
X164.43Y-76.34
X164.65Y-91.78
X164.675Y-82.345
X164.675Y-83.615
X164.675Y-87.425
X164.675Y-89.965
X164.74Y-92.74
X164.75Y-48.84
X164.78Y-44.5
X165.31Y-71.82
X165.407Y-115.367
X165.49Y-78.85
X165.54Y-77.78
X165.595Y-54.932
X165.6Y-64.6
X165.858Y-51.285
X165.88Y-82.35
X166.23Y-65.89
X166.32Y-68.16
X166.67Y-92.75
X166.677Y-115.367
X166.68Y-28.16
X166.846Y-56.575
X166.865Y-54.933
X166.925Y-83.615
X166.925Y-86.155
X166.925Y-87.425
X166.925Y-89.965
X167.435Y-74.915
X167.435Y-78.815
X167.77Y-73.15
X167.89Y-54.92
X167.935Y-78.165
X167.935Y-75.565
X167.935Y-74.265
X167.935Y-76.865
X167.947Y-115.367
X168.135Y-57.183
X168.28Y-81.26
X168.697Y-92.76
X169.207Y-41.89
X169.207Y-43.16
X169.207Y-45.7
X169.207Y-49.51
X169.217Y-115.367
X169.65Y-53.77
X170.487Y-115.367
X170.64Y-92.76
X170.64Y-94.86
X170.76Y-91.36
X170.84Y-78.15
X171.1Y-72.9
X171.165Y-57.132
X171.18Y-35.092
X171.195Y-80.68
X171.457Y-43.16
X171.457Y-44.43
X171.457Y-46.97
X171.457Y-48.24
X171.457Y-49.51
X171.752Y-115.342
X172.125Y-82.395
X172.125Y-83.665
X172.15Y-88.76
X172.17Y-87.47
X172.18Y-39.02
X172.23Y-86.2
X172.375Y-50.8
X172.4Y-74.91
X172.4Y-77.01
X173.022Y-115.342
X173.325Y-50.925
X173.514Y-99.065
X173.705Y-57.132
X173.72Y-31.81
X173.85Y-65.975
X173.93Y-82.03
X174.16Y-84.93
X174.21Y-75.21
X174.375Y-83.665
X174.375Y-86.205
X174.375Y-87.475
X174.375Y-90.015
X174.59Y-39.14
X174.59Y-118.47
X174.71Y-43.39
X174.76Y-47.47
X174.876Y-51.771
X174.96Y-80.05
X174.99Y-35.093
X174.99Y-31.81
X175.5Y-106.46
X175.576Y-81.39
X175.72Y-98.28
X176.25Y-28.75
X176.555Y-91.805
X176.615Y-59.44
X176.84Y-75.2
X177.45Y-35.133
X177.45Y-31.85
X177.515Y-54.883
X177.75Y-63.28
X177.88Y-91.88
X178.107Y-43.16
X178.107Y-44.43
X178.107Y-46.97
X178.107Y-48.24
X178.107Y-49.51
X178.4Y-81.76
X178.41Y-56.74
X178.76Y-37.08
X178.785Y-54.883
X178.9Y-59.7
X179.13Y-91.88
X179.23Y-34.4
X179.43Y-38.99
X180.35Y-54.065
X180.357Y-45.7
X180.357Y-48.24
X180.357Y-49.51
X180.985Y-87.982
X181.12Y-96.86
X181.21Y-64.205
X181.21Y-103.23
X181.73Y-67.45
X181.865Y-57.132
X181.97Y-74.02
X182.15Y-31.15
X182.15Y-32.41
X182.17Y-36.22
X182.195Y-33.68
X182.21Y-82.0
X182.925Y-44.431
X183.017Y-35.365
X183.135Y-54.882
X183.45Y-29.4
X183.6Y-51.06
X183.79Y-43.84
X184.16Y-63.3
X184.275Y-46.825
X184.405Y-57.132
X184.51Y-37.49
X184.55Y-32.4
X185.675Y-54.883
X186.018Y-64.48
X186.945Y-58.495
X186.957Y-46.976
X186.957Y-41.89
X186.957Y-43.16
X186.957Y-48.24
X186.957Y-49.51
X188.118Y-64.48
X188.215Y-57.133
X188.215Y-54.883
X188.288Y-68.135
X188.68Y-87.02
X189.207Y-43.16
X189.207Y-45.7
X189.207Y-46.97
X189.207Y-48.24
X189.41Y-39.24
X189.485Y-57.133
X190.148Y-64.48
X190.8Y-63.09
X190.83Y-59.69
X190.95Y-79.225
X191.0Y-56.27
X191.69Y-34.82
X191.715Y-37.36
X191.74Y-31.01
X191.74Y-32.28
X192.088Y-68.135
X192.113Y-66.435
X192.248Y-64.48
X192.515Y-57.132
X193.03Y-29.55
X193.14Y-56.23
X193.171Y-32.721
X193.595Y-38.63
X193.94Y-37.36
X194.04Y-33.55
X194.9Y-71.55
X194.925Y-55.0
X195.055Y-57.132
X195.724Y-60.09
X195.763Y-68.16
X195.812Y-63.99
X195.812Y-66.46
X195.857Y-41.89
X195.857Y-44.43
X195.857Y-46.97
X195.857Y-49.51
X196.325Y-57.132
X196.325Y-54.883
X196.57Y-87.31
X197.22Y-63.34
X197.594Y-57.286
X197.595Y-54.883
X198.107Y-43.16
X198.107Y-45.7
X198.107Y-48.24
X198.865Y-54.883
X199.488Y-66.46
X200.11Y-60.03
X200.135Y-57.133
X200.135Y-54.883
X201.71Y-72.03
X201.71Y-84.03
X201.83Y-39.85
X203.894Y-88.07
X203.894Y-96.67
T2
X183.544Y-98.15
X183.545Y-103.23
X183.594Y-89.7
X183.594Y-94.78
X185.744Y-96.82
X185.744Y-101.9
X186.244Y-90.07
X190.094Y-96.92
X191.324Y-90.07
X193.954Y-103.87
X193.994Y-90.07
X195.175Y-96.92
X199.035Y-103.87
X199.075Y-90.07
X199.544Y-96.79
X199.545Y-101.87
X201.644Y-89.73
X201.645Y-94.81
X201.654Y-98.17
X201.654Y-103.25
T3
X186.395Y-82.0
X186.434Y-74.19
X188.935Y-84.54
X188.974Y-71.65
X191.475Y-82.0
X191.514Y-74.19
X193.804Y-74.3
X193.864Y-81.955
X196.344Y-76.84
X196.404Y-84.495
X198.885Y-74.3
X198.945Y-81.955
T4
X188.254Y-93.14
X188.304Y-100.77
X189.524Y-93.14
X189.575Y-100.77
X190.794Y-93.14
X190.844Y-100.77
X194.434Y-100.78
X194.484Y-93.14
X195.704Y-100.78
X195.754Y-93.14
X196.974Y-100.78
X197.024Y-93.14
T5
X117.785Y-38.212
X117.785Y-40.752
X117.785Y-43.292
X117.785Y-45.832
X117.785Y-48.372
X117.785Y-50.912
X117.785Y-53.452
X117.785Y-55.992
X117.785Y-58.532
X117.785Y-61.072
X117.785Y-63.612
X117.785Y-66.152
X117.785Y-68.692
X117.785Y-71.232
X117.785Y-73.772
X117.785Y-76.312
X133.025Y-38.212
X133.025Y-40.752
X133.025Y-43.292
X133.025Y-45.832
X133.025Y-48.372
X133.025Y-50.912
X133.025Y-53.452
X133.025Y-55.992
X133.025Y-58.532
X133.025Y-61.072
X133.025Y-63.612
X133.025Y-66.152
X133.025Y-68.692
X133.025Y-71.232
X133.025Y-73.772
X133.025Y-76.312
X139.558Y-32.565
X139.558Y-37.445
T6
X109.88Y-38.91
X109.88Y-41.45
X109.88Y-43.99
X109.88Y-46.53
X109.88Y-49.07
X109.88Y-51.61
X109.88Y-54.15
X109.88Y-56.69
X109.88Y-59.23
X109.88Y-61.77
X109.88Y-64.31
X109.88Y-66.85
X109.88Y-69.39
X109.88Y-71.93
X109.88Y-74.47
X109.88Y-77.01
X109.88Y-79.55
X109.88Y-82.09
X109.88Y-84.63
X109.88Y-87.17
X112.42Y-38.91
X112.42Y-41.45
X112.42Y-43.99
X112.42Y-46.53
X112.42Y-49.07
X112.42Y-51.61
X112.42Y-54.15
X112.42Y-56.69
X112.42Y-59.23
X112.42Y-61.77
X112.42Y-64.31
X112.42Y-66.85
X112.42Y-69.39
X112.42Y-71.93
X112.42Y-74.47
X112.42Y-77.01
X112.42Y-79.55
X112.42Y-82.09
X112.42Y-84.63
X112.42Y-87.17
X176.1Y-67.825
X176.1Y-70.365
T7
X170.06Y-66.99
X170.06Y-69.53
X170.06Y-64.45
X186.475Y-113.525
T8
X181.45Y-108.5
X181.45Y-118.55
X191.5Y-108.5
X191.5Y-118.55
T9
X112.2Y-28.8
X112.2Y-118.7
X200.9Y-28.8
X200.9Y-118.7
M30
